<svg width="153" height="120" viewBox="0 0 153 120" fill="none" xmlns="http://www.w3.org/2000/svg">
<path d="M78.0693 39.4277L30.3223 11.8648C50.5383 0.341686 82.2721 -3.10567 108.446 4.62429C140.781 14.2003 156.428 38.6031 140.835 57.6328L78.0693 39.4277Z" fill="#D41D6D"/>
<path d="M78.0688 39.4277V77.4604L140.834 95.6601V57.6328L78.0688 39.4277Z" fill="#D41D6D"/>
<path opacity="0.15" d="M78.0688 39.4277V77.4604L140.834 95.6601V57.6328L78.0688 39.4277Z" fill="black"/>
<path d="M30.3223 11.8649V49.8922L78.0693 77.4605V39.4278L30.3223 11.8649Z" fill="#D41D6D"/>
<path opacity="0.2" d="M30.3223 11.8649V49.8922L78.0693 77.4605V39.4278L30.3223 11.8649Z" fill="black"/>
<path d="M140.834 95.6601C144.984 90.5955 146.921 85.1478 146.921 79.7001V41.6727C146.921 47.1204 144.984 52.5681 140.834 57.6327V95.6601Z" fill="#D41D6D"/>
<path opacity="0.3" d="M140.834 95.6601C144.984 90.5955 146.921 85.1478 146.921 79.7001V41.6727C146.921 47.1204 144.984 52.5681 140.834 57.6327V95.6601Z" fill="black"/>
<path d="M127.098 74.6994C122.056 77.5778 116.76 79.9855 111.276 81.892L83.9102 50.8605L137.616 66.6449C134.493 69.7966 130.955 72.5065 127.098 74.6994Z" fill="#455A64"/>
<path d="M83.9102 50.8605V83.6529L111.276 114.679V81.892L83.9102 50.8605Z" fill="#263238"/>
<path d="M111.276 114.679C116.761 112.775 122.057 110.367 127.098 107.487C130.956 105.289 134.494 102.573 137.616 99.4161V66.6449C134.493 69.7966 130.955 72.5065 127.098 74.6994C122.056 77.5778 116.76 79.9855 111.276 81.892V114.679Z" fill="#37474F"/>
<path d="M41.8237 92.548C36.6527 90.8509 32.4286 88.3665 27.9917 85.8554C5.52006 73.0874 1.92374 46.9184 25.5233 31.8202L71.7753 58.3936L41.8237 92.548Z" fill="#D41D6D"/>
<path opacity="0.3" d="M41.8237 92.548C36.6527 90.8509 32.4286 88.3665 27.9917 85.8554C5.52006 73.0874 1.92374 46.9184 25.5233 31.8202L71.7753 58.3936L41.8237 92.548Z" fill="black"/>
<path d="M71.802 58.3936L41.8345 92.5479V113.631L71.802 79.4767V58.3936Z" fill="#D41D6D"/>
<path opacity="0.5" d="M71.802 58.3936L41.8345 92.5479V113.631L71.802 79.4767V58.3936Z" fill="black"/>
<path d="M41.8239 113.631C36.6528 111.934 32.4288 109.45 27.9919 106.939C16.0219 100.14 9.40381 89.5369 9.40381 78.833V57.6328C9.40381 68.3367 16.0219 78.9394 27.9919 85.7384C32.4128 88.2494 36.6369 90.7339 41.8239 92.4309V113.631Z" fill="#D41D6D"/>
<path opacity="0.4" d="M41.8239 113.631C36.6528 111.934 32.4288 109.45 27.9919 106.939C16.0219 100.14 9.40381 89.5369 9.40381 78.833V57.6328C9.40381 68.3367 16.0219 78.9394 27.9919 85.7384C32.4128 88.2494 36.6369 90.7339 41.8239 92.4309V113.631Z" fill="black"/>
<path d="M105.1 101.927C87.2991 106.864 65.5563 105.949 47.6758 101.012L76.0207 68.9431L105.1 101.927Z" fill="#D41D6D"/>
<path opacity="0.7" d="M105.1 101.927C87.2991 106.864 65.5563 105.949 47.6758 101.012L76.0207 68.9431L105.1 101.927Z" fill="white"/>
<path d="M47.6758 115.552C65.5616 120.483 87.3045 121.404 105.132 116.461V101.927C87.2991 106.864 65.5563 105.949 47.6758 101.012V115.552Z" fill="#D41D6D"/>
<path opacity="0.5" d="M47.6758 115.552C65.5616 120.483 87.3045 121.404 105.132 116.461V101.927C87.2991 106.864 65.5563 105.949 47.6758 101.012V115.552Z" fill="white"/>
<path d="M36.9831 64.6925C38.4051 64.6925 39.558 63.5397 39.558 62.1176C39.558 60.6956 38.4051 59.5427 36.9831 59.5427C35.561 59.5427 34.4082 60.6956 34.4082 62.1176C34.4082 63.5397 35.561 64.6925 36.9831 64.6925Z" fill="#263238"/>
<path d="M36.9829 62.4368C36.9228 62.4366 36.864 62.4201 36.8126 62.3889L8.74962 44.6201H1.30162C1.21696 44.6201 1.13577 44.5865 1.07591 44.5266C1.01605 44.4667 0.982422 44.3855 0.982422 44.3009C0.982422 44.2162 1.01605 44.1351 1.07591 44.0752C1.13577 44.0153 1.21696 43.9817 1.30162 43.9817H8.84006C8.90081 43.9823 8.96003 44.0008 9.0103 44.0349L37.1531 61.8675C37.1882 61.8897 37.2186 61.9186 37.2425 61.9526C37.2663 61.9867 37.2832 62.0251 37.2921 62.0656C37.301 62.1062 37.3018 62.1482 37.2944 62.1891C37.2869 62.2299 37.2715 62.2689 37.2489 62.3038C37.2193 62.3466 37.1794 62.3812 37.1329 62.4044C37.0864 62.4277 37.0348 62.4388 36.9829 62.4368Z" fill="#263238"/>
<path d="M107.084 64.7455C107.084 65.2548 107.235 65.7526 107.518 66.1761C107.801 66.5995 108.203 66.9295 108.674 67.1244C109.144 67.3193 109.662 67.3703 110.162 67.2709C110.661 67.1716 111.12 66.9264 111.48 66.5663C111.84 66.2062 112.085 65.7473 112.185 65.2479C112.284 64.7484 112.233 64.2307 112.038 63.7602C111.843 63.2897 111.513 62.8875 111.09 62.6046C110.666 62.3217 110.169 62.1707 109.659 62.1707C108.976 62.1707 108.322 62.4419 107.839 62.9248C107.356 63.4077 107.084 64.0626 107.084 64.7455Z" fill="#263238"/>
<path d="M109.659 65.0648C109.603 65.0648 109.548 65.0501 109.5 65.0221C109.451 64.9941 109.411 64.9538 109.383 64.9052C109.362 64.8693 109.348 64.8296 109.343 64.7884C109.338 64.7472 109.34 64.7054 109.351 64.6653C109.362 64.6252 109.381 64.5877 109.406 64.5549C109.432 64.5221 109.464 64.4947 109.5 64.4743L140.393 46.6363C140.44 46.6093 140.493 46.5946 140.547 46.5938H152.634C152.676 46.5937 152.718 46.602 152.757 46.6181C152.795 46.6341 152.83 46.6576 152.86 46.6872C152.89 46.7169 152.913 46.7521 152.929 46.7908C152.945 46.8295 152.954 46.871 152.954 46.913C152.954 46.9546 152.945 46.9959 152.929 47.0343C152.913 47.0727 152.889 47.1076 152.86 47.1368C152.83 47.166 152.795 47.189 152.756 47.2045C152.717 47.2199 152.676 47.2275 152.634 47.2268H140.632L109.814 65.0222C109.767 65.0493 109.714 65.0639 109.659 65.0648Z" fill="#263238"/>
</svg>
