<svg width="154" height="127" viewBox="0 0 154 127" fill="none" xmlns="http://www.w3.org/2000/svg">
<path d="M148.711 2.34391L3.28277 49.2928V113.309L3.30139 124.815L2.01683 124.402L0 123.75V48.2346L145.429 1.28564L147.93 2.09062L148.711 2.34391Z" fill="#E6E6E6"/>
<path d="M148.711 2.34399V66.364L8.19757 111.72L4.921 112.782L4.10806 113.042L3.30133 113.299L3.28271 113.309V49.2929L148.711 2.34399Z" fill="#F0F0F0"/>
<path d="M145.429 1.28564L148.711 2.34391L3.28277 49.2928L0 48.2311L145.429 1.28564Z" fill="#F0F0F0"/>
<path d="M149.89 1.97605L148.711 2.35772L3.28255 49.3032L2.82333 49.4489V124.662L2.0166 124.402V49.1922L2.49444 49.0395L147.929 2.09055L149.09 1.71582L149.89 1.97605Z" fill="#D41D6D"/>
<path opacity="0.1" d="M149.89 1.97605L148.711 2.35772L3.28255 49.3032L2.82333 49.4489V124.662L2.0166 124.402V49.1922L2.49444 49.0395L147.929 2.09055L149.09 1.71582L149.89 1.97605Z" fill="black"/>
<path d="M148.693 2.35783L3.28246 49.3033L2.82324 49.449V124.662L3.30107 124.815L149.884 77.6267V1.98657L148.693 2.35783Z" fill="#D41D6D"/>
<path opacity="0.05" d="M148.693 2.35783L3.28246 49.3033L2.82324 49.449V124.662L3.30107 124.815L149.884 77.6267V1.98657L148.693 2.35783Z" fill="black"/>
<path d="M149.084 1.71936L149.89 1.97612L2.82333 49.4524L2.0166 49.1922L149.084 1.71936Z" fill="#D41D6D"/>
<path opacity="0.4" d="M149.084 1.71936L149.89 1.97612L2.82333 49.4524L2.0166 49.1922L149.084 1.71936Z" fill="white"/>
<path d="M151.175 2.38908L149.891 2.80198L148.712 3.18365L108.655 16.1153L4.10849 49.8619V125.075L3.30176 124.815V49.6052L148.712 2.67013L149.891 2.28846L150.375 2.13232L151.175 2.38908Z" fill="#D41D6D"/>
<path opacity="0.1" d="M151.175 2.38908L149.891 2.80198L148.712 3.18365L108.655 16.1153L4.10849 49.8619V125.075L3.30176 124.815V49.6052L148.712 2.67013L149.891 2.28846L150.375 2.13232L151.175 2.38908Z" fill="black"/>
<path d="M149.891 2.8018L148.693 3.18694L108.654 16.1152L4.10205 49.8687V125.075L4.91499 125.339L8.11089 124.256L151.175 78.0464V2.40625L149.891 2.8018Z" fill="#D41D6D"/>
<path d="M150.375 2.13232L151.175 2.38908L4.10849 49.8654L3.30176 49.6087L150.375 2.13232Z" fill="#D41D6D"/>
<path opacity="0.4" d="M150.375 2.13232L151.175 2.38908L4.10849 49.8654L3.30176 49.6087L150.375 2.13232Z" fill="white"/>
<path d="M153.633 3.93656L151.175 4.73113L149.891 5.1475L148.712 5.52223L8.19796 50.882V126.397L4.92139 125.339V49.8238L148.712 3.4057L149.891 3.02402L150.35 2.8783L151.175 3.14547L153.633 3.93656Z" fill="#E6E6E6"/>
<path d="M150.35 2.87476L153.633 3.93302L8.20416 50.882L4.92139 49.8202L150.35 2.87476Z" fill="#F0F0F0"/>
<path d="M8.19727 50.882V126.397L153.632 79.4518V3.93311L8.19727 50.882Z" fill="#FAFAFA"/>
<path d="M23.1218 48.4982C24.065 48.1929 24.8345 48.4393 24.8345 49.0534C24.8018 49.3856 24.6298 49.7088 24.3322 49.997C24.0347 50.2851 23.62 50.53 23.1218 50.7119C22.1723 51.0173 21.4028 50.7709 21.4028 50.1603C21.4353 49.8271 21.6078 49.503 21.9065 49.2142C22.2052 48.9254 22.6216 48.6801 23.1218 48.4982Z" fill="#37474F"/>
<path d="M18.2938 40.851C16.4321 40.2507 14.6387 40.157 13.2611 40.6081C11.8834 41.0591 11.1201 41.9647 11.1201 43.1687C11.1266 43.627 11.2265 44.0833 11.418 44.5289L12.5598 44.1576C12.4448 43.8319 12.3866 43.5007 12.3861 43.1687C12.3861 42.225 12.9197 41.5345 13.894 41.2188C14.8683 40.903 16.2025 40.9932 17.6608 41.4651C20.9188 42.506 23.5686 45.084 23.5686 47.1867C23.5929 47.642 23.4295 48.0944 23.0908 48.5087C22.8604 48.7682 22.5032 48.986 22.0606 49.1367C22.0295 49.148 21.9962 49.1573 21.9613 49.1644C21.6758 49.4182 21.4916 49.7034 21.4214 50.0006C21.8691 49.9593 22.3 49.8735 22.6936 49.7474C23.5423 49.4647 24.176 49.0178 24.4746 48.4913C24.7273 48.0712 24.849 47.6299 24.8345 47.1867C24.8345 44.8585 21.9055 42.0133 18.2938 40.851Z" fill="#D41D6D"/>
<path d="M31.4504 45.8093C32.3937 45.5039 33.1632 45.7538 33.1632 46.3644C33.1295 46.697 32.957 47.0205 32.6596 47.3091C32.3622 47.5977 31.9481 47.8434 31.4504 48.0264C30.5009 48.3318 29.7314 48.0819 29.7314 47.4713C29.7649 47.1383 29.9379 46.8144 30.2365 46.5257C30.5351 46.237 30.9509 45.9915 31.4504 45.8093Z" fill="#37474F"/>
<path d="M26.6219 38.162C24.7603 37.5617 22.9668 37.4681 21.5892 37.9191C20.2115 38.3702 19.4482 39.2758 19.4482 40.4798C19.4547 40.938 19.5546 41.3943 19.7461 41.8399L20.888 41.4687C20.7727 41.143 20.7145 40.8118 20.7142 40.4798C20.7142 39.536 21.2479 38.8455 22.2222 38.5298C23.1964 38.214 24.5307 38.3043 25.989 38.7761C29.2469 39.8171 31.8967 42.3951 31.8967 44.5012C31.9233 44.9566 31.7597 45.4093 31.4189 45.8232C31.1864 46.081 30.8296 46.2973 30.3888 46.4477L30.2895 46.4789C30.0031 46.7312 29.8189 47.0154 29.7496 47.3117C30.1862 47.2696 30.6063 47.185 30.9907 47.0619C31.8383 46.7769 32.4714 46.3292 32.7717 45.8023C33.0208 45.3829 33.1425 44.9431 33.1316 44.5012C33.1627 42.1695 30.2336 39.3278 26.6219 38.162Z" fill="#D41D6D"/>
<path d="M14.7943 51.1839C15.7438 50.8786 16.507 51.1249 16.507 51.7391C16.4758 52.0715 16.3044 52.395 16.0067 52.6833C15.709 52.9715 15.2935 53.2163 14.7943 53.3976C13.851 53.7029 13.0815 53.4566 13.0815 52.8459C13.1143 52.5132 13.2863 52.1895 13.5838 51.9008C13.8813 51.6122 14.2959 51.3666 14.7943 51.1839Z" fill="#37474F"/>
<path d="M9.96617 43.5366C8.10449 42.9364 6.31106 42.8427 4.93342 43.2938C3.55577 43.7448 2.79248 44.647 2.79248 45.8544C2.79961 46.3126 2.89954 46.7689 3.09035 47.2146L4.23839 46.8433C4.12174 46.5177 4.06147 46.1865 4.05843 45.8544C4.05843 44.9107 4.59832 44.2202 5.56639 43.9044C6.53447 43.5887 7.87488 43.6789 9.3332 44.1508C12.5974 45.1917 15.2472 47.7697 15.2472 49.8724C15.2696 50.328 15.1039 50.7803 14.7631 51.1943C14.5366 51.4534 14.181 51.6702 13.7392 51.8189L13.6399 51.8501C13.351 52.102 13.1646 52.3863 13.0938 52.6828C13.5437 52.644 13.9769 52.5593 14.3722 52.433C15.2193 52.1503 15.851 51.7032 16.147 51.177C16.4012 50.757 16.5251 50.3157 16.5131 49.8724C16.5131 47.5442 13.5778 44.699 9.96617 43.5366Z" fill="#D41D6D"/>
<path d="M39.778 43.1236C40.7213 42.8148 41.4908 43.0646 41.4908 43.6753C41.4581 44.008 41.286 44.3317 40.9885 44.6204C40.691 44.9091 40.2764 45.1547 39.778 45.3373C38.8286 45.6427 38.0591 45.3928 38.0591 44.7822C38.092 44.4496 38.2648 44.126 38.5635 43.8379C38.8622 43.5497 39.2783 43.305 39.778 43.1236Z" fill="#37474F"/>
<path d="M34.9501 35.4764C33.0884 34.8726 31.295 34.7824 29.9111 35.23C28.5272 35.6776 27.7764 36.5867 27.7764 37.7907C27.7828 38.2489 27.8827 38.7052 28.0742 39.1508L29.2161 38.7795C29.1008 38.4539 29.0426 38.1227 29.0423 37.7907C29.0423 36.8469 29.576 36.1564 30.5441 35.8442C31.5122 35.5319 32.8588 35.6152 34.3171 36.087C37.575 37.128 40.2248 39.706 40.2248 41.8121C40.2485 42.2674 40.0851 42.7196 39.747 43.1341C39.5146 43.3919 39.1577 43.6082 38.7169 43.7586L38.6176 43.7898C38.3329 44.0426 38.1487 44.3266 38.0777 44.6226C38.525 44.5825 38.9559 44.4979 39.3499 44.3728C40.1974 44.0878 40.8305 43.6401 41.1309 43.1132C41.38 42.6938 41.5017 42.254 41.4908 41.8121C41.4908 39.4804 38.5555 36.6387 34.9501 35.4764Z" fill="#D41D6D"/>
<path d="M48.0995 40.4346C49.0489 40.1293 49.8184 40.3756 49.8184 40.9863C49.7884 41.3207 49.6169 41.6463 49.3181 41.9364C49.0193 42.2265 48.6016 42.4729 48.0995 42.6552C47.1562 42.9606 46.3867 42.7142 46.3867 42.1001C46.4175 41.7667 46.5887 41.4421 46.8863 41.1526C47.1839 40.8632 47.5996 40.6172 48.0995 40.4346Z" fill="#37474F"/>
<path d="M43.2777 32.7873C41.416 32.1836 39.6226 32.0934 38.2387 32.5445C36.8549 32.9955 36.104 33.8977 36.104 35.1051C36.1108 35.5622 36.2107 36.0174 36.4019 36.4618L37.5437 36.094C37.429 35.7683 37.3708 35.4371 37.3699 35.1051C37.3699 34.1614 37.9036 33.4674 38.8717 33.1551C39.8398 32.8428 41.1802 32.9296 42.6447 33.4015C45.9027 34.4424 48.5525 37.0169 48.5525 39.1231C48.5768 39.5784 48.4133 40.0307 48.0746 40.445C47.8422 40.7029 47.4854 40.9192 47.0445 41.0696L46.9452 41.1008C46.6605 41.3535 46.4764 41.6375 46.4053 41.9335C46.8534 41.895 47.2847 41.8103 47.6775 41.6837C48.5266 41.3998 49.1602 40.9517 49.4585 40.4242C49.7076 40.0048 49.8293 39.565 49.8184 39.1231C49.8184 36.7949 46.8832 33.9497 43.2777 32.7873Z" fill="#D41D6D"/>
<path d="M56.4281 37.7455C57.3775 37.4402 58.147 37.6865 58.147 38.2972C58.1151 38.6304 57.9427 38.9546 57.644 39.2435C57.3453 39.5323 56.9286 39.7775 56.4281 39.9592C55.4848 40.2645 54.7153 40.0182 54.7153 39.4075C54.7471 39.0747 54.9187 38.7508 55.2163 38.462C55.5139 38.1733 55.929 37.9278 56.4281 37.7455Z" fill="#37474F"/>
<path d="M51.606 30.0982C49.7443 29.4945 47.9509 29.4043 46.567 29.8554C45.1831 30.3064 44.4385 31.2051 44.4385 32.416C44.4456 32.8742 44.5455 33.3305 44.7363 33.7762L45.8782 33.4049C45.7635 33.0792 45.7053 32.748 45.7044 32.416C45.7044 31.4723 46.2381 30.7783 47.2062 30.466C48.1743 30.1538 49.5147 30.2405 50.9792 30.7124C54.2371 31.7533 56.8869 34.3279 56.8869 36.434C56.9125 36.8897 56.7468 37.3425 56.4029 37.7559C56.1747 38.0143 55.8195 38.2309 55.379 38.3805C55.3473 38.3922 55.3141 38.4026 55.2797 38.4117C54.995 38.6644 54.8109 38.9484 54.7398 39.2445C55.1772 39.2039 55.5977 39.1192 55.9809 38.9946C56.8281 38.711 57.4613 38.2645 57.7619 37.7386C58.0111 37.318 58.1327 36.877 58.1219 36.434C58.1467 34.1058 55.2114 31.2606 51.606 30.0982Z" fill="#D41D6D"/>
<path d="M64.7552 35.0565C65.7047 34.7511 66.4742 34.9975 66.4742 35.6116C66.4413 35.9442 66.2685 36.2677 65.9698 36.5559C65.6711 36.8441 65.255 37.0888 64.7552 37.2702C63.812 37.5755 63.0425 37.3291 63.0425 36.7185C63.0752 36.3858 63.2472 36.0621 63.5447 35.7734C63.8422 35.4847 64.2569 35.2391 64.7552 35.0565Z" fill="#37474F"/>
<path d="M59.9524 27.4092C58.0907 26.8089 56.2973 26.7152 54.9134 27.1663C53.5296 27.6174 52.7725 28.5195 52.7725 29.727C52.7783 30.1854 52.8804 30.6419 53.0765 31.0871L54.2184 30.7158C54.1014 30.3902 54.0411 30.0591 54.0384 29.727C54.0384 28.7832 54.5783 28.0927 55.5464 27.777C56.5145 27.4612 57.8549 27.5515 59.3194 28.0233C62.5773 29.0643 65.2271 31.6423 65.2271 33.7449C65.2534 34.2007 65.0876 34.6536 64.7431 35.0669C64.513 35.3255 64.1584 35.543 63.7192 35.6949L63.6199 35.7227C63.3352 35.9754 63.151 36.2594 63.08 36.5554C63.5288 36.5185 63.9607 36.4337 64.3521 36.3056C65.2009 36.023 65.8346 35.576 66.1332 35.0495C66.3823 34.6289 66.504 34.188 66.4931 33.7449C66.4745 31.4167 63.5392 28.5716 59.9524 27.4092Z" fill="#D41D6D"/>
<path d="M73.0834 32.3675C74.0328 32.0622 74.7961 32.312 74.7961 32.9227C74.7649 33.2551 74.5934 33.5786 74.2957 33.8669C73.9981 34.1551 73.5826 34.3999 73.0834 34.5812C72.1401 34.89 71.3706 34.6402 71.3706 34.0295C71.4043 33.697 71.5768 33.3734 71.8742 33.0848C72.1716 32.7962 72.5857 32.5506 73.0834 32.3675Z" fill="#37474F"/>
<path d="M68.2619 24.7202C66.4002 24.12 64.6068 24.0263 63.223 24.4773C61.8391 24.9284 61.082 25.834 61.082 27.038C61.0875 27.4965 61.1896 27.953 61.3861 28.3981L62.5279 28.0269C62.4107 27.7013 62.3504 27.3701 62.348 27.038C62.348 26.0942 62.8879 25.4038 63.8559 25.088C64.824 24.7723 66.1644 24.8625 67.629 25.3344C70.8869 26.3753 73.5367 28.9533 73.5367 31.0594C73.5623 31.5141 73.3965 31.9657 73.0527 32.3779C72.8263 32.6379 72.4708 32.8559 72.0287 33.0059L71.9295 33.0372C71.6431 33.2894 71.4589 33.5737 71.3896 33.8699C71.8259 33.8273 72.2458 33.7428 72.6307 33.6201C73.4767 33.335 74.1077 32.8872 74.4055 32.3606C74.6598 31.9418 74.7836 31.5017 74.7716 31.0594C74.8027 28.7278 71.8674 25.8861 68.2619 24.7202Z" fill="#D41D6D"/>
<path d="M81.4115 29.6819C82.3609 29.3731 83.1242 29.6229 83.1242 30.2335C83.093 30.5664 82.9215 30.8904 82.6239 31.1793C82.3263 31.4681 81.9109 31.7135 81.4115 31.8956C80.4682 32.2009 79.6987 31.9511 79.6987 31.3404C79.7314 31.0082 79.9035 30.685 80.2011 30.3968C80.4986 30.1087 80.9133 29.8638 81.4115 29.6819Z" fill="#37474F"/>
<path d="M76.5896 22.0313C74.7279 21.431 72.9345 21.3373 71.5506 21.7884C70.1668 22.2394 69.4097 23.145 69.4097 24.349C69.4152 24.8075 69.5172 25.264 69.7137 25.7092L70.8556 25.3379C70.7383 25.0123 70.678 24.6812 70.6756 24.349C70.6756 23.4053 71.2155 22.7148 72.1836 22.4025C73.1517 22.0902 74.4921 22.1735 75.9566 22.6454C79.2145 23.6863 81.8643 26.2643 81.8643 28.3705C81.8892 28.8262 81.7235 29.2789 81.3803 29.6924C81.1556 29.9521 80.7996 30.1693 80.3564 30.317L80.2571 30.3482C79.9674 30.5996 79.7829 30.8842 79.7172 31.1809C80.1643 31.1403 80.595 31.0557 80.9893 30.9311C81.8369 30.647 82.4685 30.1988 82.7642 29.6716C83.0184 29.2528 83.1423 28.8127 83.1303 28.3705C83.1303 26.0388 80.195 23.1971 76.5896 22.0313Z" fill="#D41D6D"/>
<path d="M89.7396 26.993C90.6891 26.6876 91.4524 26.934 91.4524 27.5446C91.4211 27.8775 91.2497 28.2015 90.952 28.4904C90.6544 28.7792 90.239 29.0246 89.7396 29.2066C88.7964 29.512 88.0269 29.2622 88.0269 28.6515C88.0596 28.3193 88.2316 27.9961 88.5292 27.7079C88.8267 27.4198 89.2414 27.1749 89.7396 26.993Z" fill="#37474F"/>
<path d="M84.9172 19.3457C83.0555 18.742 81.2621 18.6517 79.8782 19.1028C78.4944 19.5539 77.7373 20.456 77.7373 21.6635C77.7432 22.1208 77.8452 22.5761 78.0414 23.0201L79.1894 22.6523C79.0728 22.3267 79.0125 21.9956 79.0095 21.6635C79.0095 20.7197 79.5493 20.0258 80.5174 19.7135C81.4855 19.4012 82.8259 19.4845 84.2904 19.9564C87.5484 20.9973 90.1982 23.5753 90.1982 25.6814C90.2238 26.1372 90.058 26.5899 89.7141 27.0034C89.4859 27.2617 89.1307 27.4784 88.6902 27.6279L88.5909 27.6592C88.3013 27.9105 88.1167 28.1951 88.051 28.4919C88.4981 28.4512 88.9288 28.3666 89.3232 28.2421C90.1704 27.9577 90.8018 27.5096 91.098 26.9826C91.3523 26.5638 91.4761 26.1236 91.4641 25.6814C91.4579 23.3532 88.4979 20.508 84.9172 19.3457Z" fill="#D41D6D"/>
<path d="M98.0668 24.3039C99.0162 23.9985 99.7795 24.2449 99.7795 24.8556C99.7487 25.1885 99.5775 25.5126 99.2799 25.8015C98.9822 26.0903 98.5665 26.3357 98.0668 26.5176C97.1235 26.8229 96.354 26.5765 96.354 25.9659C96.3858 25.6331 96.5574 25.3091 96.855 25.0204C97.1526 24.7316 97.5677 24.4861 98.0668 24.3039Z" fill="#37474F"/>
<path d="M93.2458 16.6566C91.3841 16.0529 89.5907 15.9627 88.2069 16.4137C86.823 16.8648 86.0659 17.7669 86.0659 18.9744C86.0724 19.4328 86.1745 19.8893 86.37 20.3345L87.5118 19.9633C87.3952 19.6376 87.3349 19.3065 87.3319 18.9744C87.3319 18.0306 87.8718 17.3367 88.8398 17.0244C89.8079 16.7121 91.1483 16.7989 92.6066 17.2707C95.8708 18.3117 98.5206 20.8862 98.5206 22.9923C98.5462 23.4481 98.3804 23.9008 98.0366 24.3143C97.8083 24.5726 97.4532 24.7893 97.0126 24.9388L96.9133 24.9701C96.6237 25.2214 96.4391 25.5061 96.3735 25.8028C96.8212 25.7635 97.2523 25.6789 97.6456 25.553C98.4912 25.2692 99.1224 24.8226 99.4204 24.2969C99.6747 23.8769 99.7985 23.4357 99.7866 22.9923C99.7866 20.6641 96.8513 17.819 93.2458 16.6566Z" fill="#D41D6D"/>
<path d="M106.395 21.6148C107.345 21.3095 108.108 21.5558 108.108 22.17C108.077 22.5024 107.905 22.8259 107.608 23.1142C107.31 23.4024 106.895 23.6472 106.395 23.8285C105.452 24.1338 104.683 23.8875 104.683 23.2768C104.715 22.9442 104.887 22.6204 105.185 22.3317C105.482 22.0431 105.897 21.7975 106.395 21.6148Z" fill="#37474F"/>
<path d="M101.567 13.9675C99.7056 13.3673 97.9121 13.2736 96.5345 13.7247C95.1569 14.1757 94.3936 15.0779 94.3936 16.2853C94.4007 16.7435 94.5006 17.1998 94.6914 17.6455L95.8395 17.2742C95.7228 16.9486 95.6626 16.6174 95.6595 16.2853C95.6595 15.3416 96.1994 14.6511 97.1675 14.3353C98.1355 14.0196 99.476 14.1098 100.934 14.5817C104.198 15.6226 106.848 18.2006 106.848 20.3033C106.871 20.7589 106.705 21.2112 106.364 21.6252C106.138 21.8843 105.782 22.1011 105.34 22.2498L105.241 22.281C104.952 22.5329 104.766 22.8172 104.695 23.1138C105.145 23.0749 105.578 22.9902 105.973 22.8639C106.816 22.5799 107.443 22.133 107.736 21.6079C107.99 21.1879 108.114 20.7466 108.102 20.3033C108.114 17.9751 105.179 15.1299 101.567 13.9675Z" fill="#D41D6D"/>
<path d="M114.717 18.9293C115.66 18.6205 116.43 18.8703 116.43 19.481C116.397 19.8137 116.225 20.1374 115.927 20.4261C115.63 20.7148 115.215 20.9603 114.717 21.143C113.768 21.4483 112.998 21.1985 112.998 20.5878C113.031 20.2553 113.204 19.9317 113.502 19.6435C113.801 19.3553 114.217 19.1106 114.717 18.9293Z" fill="#37474F"/>
<path d="M109.89 11.282C108.028 10.6782 106.234 10.588 104.851 11.0391C103.467 11.4901 102.716 12.3923 102.716 13.5997C102.723 14.0568 102.823 14.512 103.014 14.9564L104.156 14.5851C104.041 14.2606 103.982 13.9306 103.982 13.5997C103.982 12.6525 104.515 11.962 105.49 11.6498C106.464 11.3375 107.798 11.4208 109.257 11.8926C112.514 12.9336 115.164 15.5116 115.164 17.6177C115.189 18.073 115.025 18.5254 114.686 18.9397C114.454 19.1975 114.097 19.4138 113.656 19.5642L113.557 19.5954C113.272 19.8482 113.088 20.1322 113.017 20.4282C113.464 20.3881 113.895 20.3035 114.289 20.1784C115.137 19.8934 115.77 19.4457 116.07 18.9188C116.319 18.4994 116.441 18.0596 116.43 17.6177C116.424 15.2895 113.495 12.4443 109.89 11.282Z" fill="#D41D6D"/>
<path d="M123.039 16.2402C123.988 15.9348 124.758 16.1812 124.758 16.7918C124.726 17.125 124.554 17.4492 124.255 17.7381C123.956 18.0269 123.539 18.2722 123.039 18.4538C122.096 18.7592 121.326 18.5128 121.326 17.8987C121.359 17.5665 121.531 17.2432 121.829 16.9551C122.126 16.667 122.541 16.4221 123.039 16.2402Z" fill="#37474F"/>
<path d="M118.217 8.59276C116.355 7.98902 114.562 7.89881 113.178 8.34987C111.794 8.80094 111.043 9.70307 111.043 10.9105C111.05 11.3676 111.15 11.8228 111.341 12.2672L112.483 11.8994C112.368 11.5737 112.31 11.2425 112.309 10.9105C112.309 9.96677 112.843 9.27282 113.811 8.96055C114.779 8.64827 116.119 8.73501 117.584 9.2069C120.842 10.2478 123.491 12.8224 123.491 14.9285C123.516 15.3838 123.352 15.8362 123.014 16.2505C122.792 16.5079 122.443 16.7245 122.008 16.875C121.977 16.8867 121.943 16.8972 121.909 16.9062C121.624 17.1589 121.44 17.4429 121.369 17.739C121.817 17.7004 122.249 17.6157 122.641 17.4891C123.487 17.2048 124.12 16.7585 124.422 16.2331C124.671 15.8125 124.793 15.3715 124.782 14.9285C124.757 12.6003 121.822 9.75512 118.217 8.59276Z" fill="#D41D6D"/>
<path d="M131.367 13.5512C132.316 13.2459 133.086 13.4922 133.086 14.1029C133.054 14.4361 132.881 14.7603 132.582 15.0491C132.284 15.338 131.867 15.5832 131.367 15.7649C130.423 16.0702 129.654 15.8239 129.654 15.2132C129.687 14.8805 129.859 14.5568 130.156 14.2681C130.454 13.9794 130.868 13.7339 131.367 13.5512Z" fill="#37474F"/>
<path d="M126.545 5.90382C124.683 5.30356 122.89 5.20988 121.506 5.66094C120.122 6.11201 119.371 7.01414 119.371 8.2216C119.378 8.67981 119.478 9.1361 119.669 9.58174L120.811 9.21048C120.696 8.88474 120.638 8.55358 120.637 8.2216C120.637 7.27783 121.171 6.58736 122.139 6.27161C123.107 5.95587 124.447 6.04608 125.912 6.51796C129.17 7.55888 131.82 10.1334 131.82 12.2395C131.845 12.6953 131.679 13.1481 131.336 13.5615C131.107 13.8199 130.752 14.0365 130.312 14.1861C130.281 14.1991 130.248 14.2096 130.212 14.2173C129.928 14.47 129.743 14.754 129.672 15.05C130.11 15.0095 130.53 14.9248 130.914 14.8002C131.761 14.5166 132.394 14.07 132.695 13.5442C132.944 13.1235 133.065 12.6826 133.054 12.2395C133.086 9.91136 130.15 7.06618 126.545 5.90382Z" fill="#D41D6D"/>
<path d="M139.695 10.8621C140.645 10.5568 141.414 10.8032 141.414 11.4173C141.381 11.7499 141.208 12.0734 140.91 12.3616C140.611 12.6498 140.195 12.8945 139.695 13.0758C138.752 13.3812 137.982 13.1348 137.982 12.5241C138.015 12.1915 138.187 11.8677 138.485 11.5791C138.782 11.2904 139.197 11.0448 139.695 10.8621Z" fill="#37474F"/>
<path d="M134.873 3.21486C133.011 2.61459 131.218 2.52091 129.834 2.97198C128.45 3.42304 127.693 4.32517 127.693 5.53264C127.698 5.99112 127.8 6.44764 127.997 6.89277L129.139 6.52151C129.024 6.1958 128.966 5.86463 128.965 5.53264C128.965 4.58887 129.499 3.89839 130.467 3.58265C131.435 3.2669 132.775 3.35712 134.24 3.829C137.498 4.86992 140.148 7.44793 140.148 9.55059C140.174 10.0064 140.008 10.4592 139.664 10.8726C139.433 11.1311 139.079 11.3486 138.64 11.5006L138.54 11.5283C138.256 11.781 138.071 12.0651 138 12.3611C138.449 12.3242 138.881 12.2394 139.273 12.1112C140.121 11.8286 140.755 11.3817 141.054 10.8552C141.303 10.4346 141.425 9.99365 141.413 9.55059C141.413 7.2224 138.478 4.37722 134.873 3.21486Z" fill="#D41D6D"/>
<path d="M148.023 8.17304C148.972 7.8677 149.736 8.11753 149.736 8.7282C149.704 9.0606 149.533 9.38414 149.235 9.6724C148.938 9.96065 148.522 10.2054 148.023 10.3867C147.08 10.6955 146.31 10.4457 146.31 9.83504C146.344 9.50249 146.516 9.17897 146.814 8.89037C147.111 8.60177 147.525 8.35611 148.023 8.17304Z" fill="#37474F"/>
<path d="M143.201 0.525771C141.339 -0.0744929 139.546 -0.168176 138.162 0.282889C136.778 0.733954 136.021 1.63955 136.021 2.84355C136.027 3.30203 136.129 3.75855 136.325 4.20369L137.467 3.83242C137.35 3.50685 137.289 3.17566 137.287 2.84355C137.287 1.89978 137.827 1.20931 138.795 0.893561C139.763 0.577816 141.103 0.668028 142.568 1.13991C145.826 2.18083 148.476 4.75884 148.476 6.86497C148.501 7.3196 148.335 7.77123 147.992 8.18347C147.767 8.44411 147.411 8.66238 146.968 8.81149L146.868 8.84272C146.582 9.09499 146.398 9.3792 146.329 9.67545C146.776 9.63534 147.207 9.55073 147.601 9.42563C148.448 9.14153 149.08 8.69334 149.376 8.16612C149.63 7.74731 149.754 7.3072 149.742 6.86497C149.742 4.53331 146.831 1.6916 143.201 0.525771Z" fill="#D41D6D"/>
<path opacity="0.4" d="M143.201 0.525771C141.339 -0.0744929 139.546 -0.168176 138.162 0.282889C136.778 0.733954 136.021 1.63955 136.021 2.84355C136.03 3.13658 136.078 3.42885 136.164 3.71792C135.759 3.53089 135.327 3.36263 134.873 3.21481C133.011 2.61455 131.218 2.52087 129.834 2.97193C128.45 3.423 127.693 4.32512 127.693 5.53259C127.702 5.82449 127.749 6.11561 127.836 6.40349C127.429 6.2187 126.998 6.05166 126.545 5.90385C124.684 5.30012 122.89 5.20991 121.506 5.66097C120.122 6.11204 119.372 7.01417 119.372 8.22163C119.378 8.51344 119.423 8.80457 119.508 9.09254C119.101 8.90774 118.67 8.7407 118.217 8.59289C116.356 7.98916 114.562 7.89895 113.178 8.35001C111.794 8.80108 111.044 9.70321 111.044 10.9107C111.05 11.2025 111.096 11.4936 111.18 11.7816C110.775 11.5956 110.343 11.4285 109.889 11.2819C108.028 10.6782 106.234 10.588 104.85 11.0391C103.467 11.4901 102.716 12.3923 102.716 13.5997C102.722 13.8892 102.768 14.178 102.852 14.4637C102.448 14.28 102.018 14.1141 101.568 13.9675C99.7059 13.3672 97.9125 13.2736 96.5349 13.7246C95.1572 14.1757 94.3939 15.0778 94.3939 16.2853C94.4023 16.5772 94.45 16.8683 94.5367 17.1562C94.1299 16.9714 93.6984 16.8044 93.2459 16.6565C91.3842 16.0528 89.5846 15.9626 88.2069 16.4137C86.8293 16.8647 86.066 17.7669 86.066 18.9743C86.0743 19.2662 86.122 19.5574 86.2087 19.8452C85.8035 19.6593 85.3718 19.4922 84.9179 19.3456C83.0563 18.7419 81.2628 18.6516 79.879 19.1027C78.4951 19.5538 77.738 20.4559 77.738 21.6634C77.7467 21.9553 77.7944 22.2464 77.8808 22.5343C77.4741 22.3484 77.0426 22.1802 76.59 22.0312C74.7283 21.4309 72.9349 21.3372 71.551 21.7883C70.1672 22.2393 69.4101 23.1449 69.4101 24.3489C69.4184 24.642 69.4661 24.9343 69.5528 25.2233C69.1477 25.0363 68.716 24.868 68.262 24.7202C66.4004 24.1199 64.6069 24.0263 63.2231 24.4773C61.8392 24.9284 61.0822 25.834 61.0822 27.038C61.0905 27.3299 61.1382 27.621 61.2249 27.9089C60.8182 27.7241 60.3866 27.5571 59.9341 27.4092C58.0724 26.809 56.279 26.7153 54.8951 27.1664C53.5113 27.6174 52.7542 28.5196 52.7542 29.727C52.7625 30.0189 52.8103 30.31 52.8969 30.5979C52.4902 30.4131 52.0587 30.2461 51.6062 30.0983C49.7445 29.4946 47.951 29.4043 46.5672 29.8554C45.1833 30.3065 44.4387 31.2051 44.4387 32.4161C44.447 32.708 44.4947 32.9991 44.5814 33.287C44.1747 33.1022 43.7431 32.9351 43.2906 32.7873C41.4289 32.1836 39.6355 32.0934 38.2517 32.5444C36.8678 32.9955 36.1169 33.8976 36.1169 35.1051C36.1234 35.3969 36.1691 35.688 36.2535 35.976C35.8483 35.7901 35.4166 35.623 34.9627 35.4764C33.101 34.8726 31.3076 34.7824 29.9237 35.23C28.5399 35.6776 27.789 36.5867 27.789 37.7907C27.7952 38.0836 27.8408 38.3759 27.9255 38.6651C27.5204 38.478 27.0887 38.3098 26.6348 38.1619C24.7731 37.5617 22.9796 37.468 21.602 37.9191C20.2243 38.3701 19.4611 39.2757 19.4611 40.4797C19.4666 40.7728 19.5143 41.0653 19.6038 41.3541C19.1955 41.1678 18.7619 40.9996 18.3068 40.851C16.4451 40.2507 14.6517 40.157 13.2741 40.6081C11.8964 41.0592 11.1331 41.9648 11.1331 43.1688C11.1344 43.4583 11.178 43.7472 11.2634 44.0327C10.8588 43.8491 10.4293 43.6832 9.97887 43.5366C8.11718 42.9363 6.32376 42.8426 4.94611 43.2937C3.56847 43.7447 2.80518 44.6469 2.80518 45.8543C2.81231 46.3125 2.91223 46.7688 3.10304 47.2145L4.25108 46.8432C4.13443 46.5176 4.07416 46.1864 4.07112 45.8543C4.07112 44.9106 4.61101 44.2201 5.57909 43.9043C6.54717 43.5886 7.88757 43.6788 9.34589 44.1507C12.6101 45.1916 15.2598 47.7696 15.2598 49.8723C15.2823 50.3279 15.1166 50.7802 14.7758 51.1942C14.5493 51.4533 14.1937 51.6702 13.7519 51.8188L13.6526 51.85C13.3637 52.1019 13.1773 52.3862 13.1065 52.6828C13.5563 52.6439 13.9896 52.5592 14.3849 52.4329C15.232 52.1502 15.8637 51.7031 16.1597 51.1769C16.4139 50.7569 16.5378 50.3157 16.5258 49.8723C16.5258 47.9847 14.5959 45.7572 11.9398 44.3624L12.5604 44.1576C12.4454 43.8319 12.3872 43.5008 12.3867 43.1688C12.3867 42.225 12.9203 41.5345 13.8946 41.2188C14.8689 40.903 16.2031 40.9932 17.6614 41.4651C20.9194 42.506 23.5692 45.0841 23.5692 47.1867C23.5935 47.642 23.43 48.0944 23.0913 48.5087C22.861 48.7682 22.5038 48.986 22.0612 49.1367C22.0301 49.148 21.9968 49.1573 21.9619 49.1645C21.6764 49.4182 21.4922 49.7034 21.422 50.0007C21.8697 49.9593 22.3005 49.8735 22.6942 49.7474C23.5429 49.4648 24.1766 49.0178 24.4752 48.4913C24.7278 48.0712 24.8496 47.6299 24.8351 47.1867C24.8351 45.2992 22.9052 43.0716 20.2492 41.6768L20.8697 41.4686C20.7545 41.1429 20.6963 40.8117 20.696 40.4797C20.696 39.536 21.2297 38.8455 22.2039 38.5297C23.1782 38.214 24.5124 38.3042 25.9708 38.7761C29.2287 39.817 31.8785 42.395 31.8785 44.5011C31.9051 44.9566 31.7415 45.4092 31.4007 45.8231C31.1682 46.081 30.8114 46.2973 30.3705 46.4477L30.2712 46.4789C29.9849 46.7312 29.8007 47.0154 29.7314 47.3116C30.168 47.2695 30.5881 47.185 30.9725 47.0618C31.8201 46.7769 32.4532 46.3292 32.7535 45.8023C33.0026 45.3829 33.1243 44.9431 33.1134 44.5011C33.1134 42.6101 31.1835 40.3826 28.5275 38.9877L29.148 38.7796C29.0328 38.4539 28.9746 38.1227 28.9743 37.7907C28.9743 36.8469 29.508 36.1564 30.4822 35.8442C31.4565 35.5319 32.7907 35.6152 34.249 36.087C37.507 37.128 40.1568 39.706 40.1568 41.8121C40.1805 42.2674 40.017 42.7197 39.679 43.1341C39.4465 43.3919 39.0897 43.6082 38.6488 43.7586L38.5495 43.7898C38.2648 44.0426 38.0807 44.3266 38.0097 44.6226C38.457 44.5825 38.8879 44.4979 39.2818 44.3728C40.1294 44.0878 40.7625 43.6401 41.0628 43.1133C41.312 42.6938 41.4336 42.254 41.4227 41.8121C41.4227 39.9211 39.4928 37.6935 36.8368 36.2987L37.4574 36.094C37.3427 35.7682 37.2845 35.4371 37.2836 35.1051C37.2836 34.1613 37.8173 33.4674 38.7854 33.1551C39.7534 32.8428 41.0938 32.9296 42.5584 33.4015C45.8163 34.4424 48.4661 37.0169 48.4661 39.1231C48.4905 39.5784 48.327 40.0307 47.9883 40.445C47.7558 40.7029 47.399 40.9192 46.9582 41.0696L46.8589 41.1008C46.5742 41.3535 46.39 41.6375 46.319 41.9335C46.767 41.895 47.1984 41.8103 47.5911 41.6837C48.4403 41.3998 49.0739 40.9517 49.3721 40.4242C49.6213 40.0048 49.7429 39.565 49.7321 39.1231C49.7321 37.2321 47.8021 35.0045 45.1461 33.6096L45.7667 33.4049C45.652 33.0792 45.5938 32.748 45.5929 32.4161C45.5929 31.4723 46.1266 30.7784 47.0947 30.4661C48.0628 30.1538 49.4032 30.2405 50.8677 30.7124C54.1256 31.7533 56.7755 34.3279 56.7755 36.434C56.801 36.8898 56.6353 37.3425 56.2914 37.756C56.0632 38.0143 55.708 38.231 55.2675 38.3805C55.2358 38.3922 55.2026 38.4027 55.1682 38.4118C54.8835 38.6645 54.6993 38.9485 54.6283 39.2445C55.0656 39.2039 55.4862 39.1193 55.8694 38.9947C56.7166 38.7111 57.3498 38.2645 57.6504 37.7386C57.8996 37.318 58.0212 36.8771 58.0104 36.434C58.0104 34.5465 56.0804 32.3189 53.4244 30.9241L54.045 30.7159C53.928 30.3903 53.8677 30.0591 53.865 29.727C53.865 28.7833 54.4049 28.0928 55.373 27.777C56.341 27.4613 57.6815 27.5515 59.146 28.0234C62.4039 29.0643 65.0537 31.6423 65.0537 33.745C65.08 34.2008 64.9142 34.6536 64.5697 35.0669C64.3396 35.3255 63.985 35.543 63.5458 35.695L63.4465 35.7227C63.1618 35.9754 62.9776 36.2594 62.9066 36.5555C63.3554 36.5186 63.7873 36.4337 64.1787 36.3056C65.0275 36.023 65.6612 35.5761 65.9598 35.0496C66.2089 34.629 66.3306 34.188 66.3197 33.745C66.3197 31.8574 64.3897 29.6299 61.7337 28.235L62.3543 28.0269C62.237 27.7013 62.1768 27.3701 62.1743 27.038C62.1743 26.0942 62.7142 25.4037 63.6823 25.088C64.6504 24.7722 65.9908 24.8625 67.4553 25.3343C70.7133 26.3753 73.3631 28.9533 73.3631 31.0594C73.3886 31.514 73.2228 31.9657 72.879 32.3779C72.6526 32.6379 72.2972 32.8559 71.8551 33.0059L71.7558 33.0371C71.4695 33.2894 71.2852 33.5736 71.2159 33.8699C71.6523 33.8272 72.0722 33.7427 72.457 33.6201C73.3031 33.335 73.9341 32.8872 74.2318 32.3605C74.4861 31.9417 74.61 31.5016 74.598 31.0594C74.598 29.1684 72.668 26.9408 70.012 25.546L70.6326 25.3378C70.5153 25.0122 70.4551 24.6811 70.4526 24.3489C70.4526 23.4052 70.9925 22.7147 71.9606 22.4024C72.9287 22.0901 74.2691 22.1734 75.7336 22.6453C78.9916 23.6862 81.6414 26.2642 81.6414 28.3704C81.6663 28.8261 81.5005 29.2787 81.1573 29.6923C80.9326 29.952 80.5766 30.1692 80.1334 30.3169L80.0341 30.3481C79.7444 30.5995 79.5599 30.8841 79.4942 31.1808C79.9413 31.1402 80.372 31.0556 80.7664 30.931C81.6139 30.6469 82.2455 30.1987 82.5412 29.6715C82.7955 29.2527 82.9193 28.8126 82.9073 28.3704C82.9073 26.4794 80.9774 24.2518 78.3214 22.857L78.9419 22.6522C78.8253 22.3266 78.765 21.9955 78.762 21.6634C78.762 20.7196 79.3018 20.0257 80.2699 19.7134C81.238 19.4011 82.5784 19.4844 84.0429 19.9563C87.3009 20.9972 89.9507 23.5752 89.9507 25.6813C89.9763 26.1371 89.8105 26.5898 89.4667 27.0033C89.2384 27.2616 88.8832 27.4783 88.4427 27.6278L88.3434 27.6591C88.0538 27.9104 87.8692 28.1951 87.8036 28.4918C88.2506 28.4511 88.6813 28.3665 89.0757 28.242C89.9229 27.9576 90.5543 27.5095 90.8505 26.9825C91.1048 26.5637 91.2286 26.1236 91.2166 25.6813C91.2166 23.7903 89.2867 21.5627 86.6307 20.1679L87.2512 19.9632C87.1346 19.6376 87.0743 19.3064 87.0713 18.9743C87.0713 18.0306 87.6112 17.3366 88.5792 17.0243C89.5473 16.7121 90.8877 16.7988 92.3523 17.2707C95.6102 18.3116 98.26 20.8862 98.26 22.9923C98.2856 23.448 98.1198 23.9008 97.776 24.3142C97.5477 24.5726 97.1926 24.7892 96.752 24.9388L96.6528 24.97C96.3631 25.2214 96.1785 25.506 96.1129 25.8028C96.5606 25.7635 96.9917 25.6788 97.385 25.5529C98.2306 25.2692 98.8618 24.8225 99.1598 24.2969C99.4141 23.8769 99.5379 23.4356 99.526 22.9923C99.526 21.1047 97.596 18.8772 94.94 17.4823L95.5606 17.2742C95.4439 16.9485 95.3837 16.6174 95.3806 16.2853C95.3806 15.3415 95.9205 14.651 96.8886 14.3353C97.8566 14.0196 99.1971 14.1098 100.655 14.5816C103.92 15.6226 106.569 18.2006 106.569 20.3032C106.592 20.7588 106.426 21.2112 106.085 21.6252C105.859 21.8842 105.503 22.1011 105.061 22.2498L104.962 22.281C104.672 22.5323 104.488 22.817 104.422 23.1137C104.87 23.0744 105.301 22.9898 105.694 22.8639C106.642 22.6104 107.375 22.1596 107.736 21.6079C107.99 21.1878 108.114 20.7466 108.102 20.3032C108.102 18.4157 106.172 16.1847 103.516 14.7898L104.137 14.5851C104.022 14.2606 103.964 13.9306 103.963 13.5997C103.963 12.6525 104.497 11.962 105.465 11.6497C106.433 11.3375 107.779 11.4207 109.238 11.8926C112.496 12.9335 115.146 15.5115 115.146 17.6177C115.17 18.073 115.006 18.5253 114.668 18.9396C114.435 19.1975 114.078 19.4138 113.638 19.5642L113.538 19.5954C113.254 19.8481 113.069 20.1321 112.998 20.4281C113.446 20.388 113.877 20.3034 114.271 20.1783C115.118 19.8934 115.751 19.4457 116.052 18.9188C116.301 18.4994 116.422 18.0596 116.411 17.6177C116.424 15.7267 114.5 13.5095 111.844 12.1216L112.465 11.9169C112.35 11.5912 112.292 11.26 112.291 10.928C112.291 9.98426 112.825 9.29031 113.793 8.97803C114.761 8.66576 116.101 8.7525 117.566 9.22439C120.824 10.2653 123.473 12.8398 123.473 14.946C123.498 15.4013 123.334 15.8536 122.996 16.2679C122.774 16.5176 122.432 16.7278 122.009 16.8751C121.977 16.8869 121.944 16.8973 121.91 16.9064C121.625 17.1591 121.441 17.4431 121.37 17.7391C121.818 17.7006 122.249 17.6159 122.642 17.4893C123.488 17.205 124.121 16.7587 124.423 16.2332C124.672 15.8126 124.794 15.3717 124.783 14.9286C124.783 13.0411 122.853 10.8135 120.197 9.41522L120.817 9.21051C120.703 8.88478 120.645 8.55361 120.644 8.22163C120.644 7.27787 121.177 6.58739 122.145 6.27164C123.114 5.9559 124.454 6.04611 125.918 6.51799C129.176 7.55891 131.826 10.1335 131.826 12.2396C131.852 12.6953 131.686 13.1481 131.342 13.5615C131.114 13.8199 130.759 14.0365 130.318 14.1861C130.287 14.1978 130.253 14.2083 130.219 14.2173C129.934 14.47 129.75 14.754 129.679 15.0501C130.116 15.0095 130.537 14.9248 130.92 14.8002C131.767 14.5166 132.401 14.0701 132.701 13.5442C132.95 13.1236 133.072 12.6826 133.061 12.2396C133.061 10.352 131.131 8.12448 128.475 6.72965L129.096 6.52147C128.993 6.19393 128.947 5.86159 128.959 5.52912C128.959 4.58536 129.499 3.89488 130.467 3.57913C131.435 3.26339 132.776 3.3536 134.24 3.82548C137.498 4.8664 140.148 7.44441 140.148 9.54707C140.174 10.0029 140.008 10.4557 139.664 10.869C139.434 11.1276 139.079 11.3451 138.64 11.4971L138.541 11.5248C138.256 11.7775 138.072 12.0615 138.001 12.3576C138.45 12.3207 138.881 12.2358 139.273 12.1077C140.122 11.8251 140.755 11.3782 141.054 10.8517C141.304 10.4311 141.425 9.99014 141.414 9.54707C141.414 7.65954 139.484 5.43197 136.828 4.03714L137.449 3.82895C137.331 3.50338 137.271 3.17219 137.269 2.84008C137.269 1.89631 137.808 1.20584 138.777 0.890092C139.745 0.574346 141.085 0.664559 142.55 1.13644C145.807 2.17736 148.457 4.75537 148.457 6.8615C148.483 7.31613 148.317 7.76776 147.973 8.18C147.749 8.44063 147.393 8.65891 146.949 8.80802L146.85 8.83925C146.564 9.09152 146.379 9.37572 146.31 9.67198C146.757 9.6313 147.188 9.54672 147.582 9.42216C148.43 9.13805 149.061 8.68987 149.357 8.16265C149.611 7.74384 149.735 7.30373 149.723 6.8615C149.742 4.53331 146.831 1.6916 143.201 0.525771Z" fill="black"/>
<path d="M26.659 56.9402L37.0596 53.5641C37.8291 53.3143 38.4558 53.4913 38.462 53.9562C38.432 54.2183 38.2901 54.4726 38.0483 54.6977C37.8065 54.9229 37.4717 55.1124 37.072 55.2504L26.659 58.616C25.8895 58.8624 25.2627 58.6854 25.2627 58.2205C25.3011 57.961 25.4474 57.7102 25.6898 57.4879C25.9322 57.2657 26.2641 57.0781 26.659 56.9402Z" fill="#D41D6D"/>
<path d="M44.4387 51.2012L54.8394 47.8216C55.6089 47.5753 56.2356 47.7488 56.2418 48.2172C56.2078 48.4787 56.0643 48.7322 55.8228 48.957C55.5814 49.1818 55.2487 49.3717 54.8518 49.5114L44.4387 52.884C43.6692 53.1338 43.0425 52.9568 43.0425 52.4919C43.0771 52.2305 43.2216 51.9774 43.4643 51.7531C43.7069 51.5288 44.0408 51.3397 44.4387 51.2012Z" fill="#D41D6D"/>
<path d="M62.224 45.4588L72.6309 42.0828C73.4004 41.833 74.0271 42.0099 74.0333 42.4749C74.0008 42.7366 73.8579 42.9904 73.6163 43.2153C73.3747 43.4403 73.0412 43.63 72.6433 43.7691L62.2302 47.1451C61.4545 47.3915 60.834 47.2145 60.834 46.7496C60.8684 46.4886 61.0122 46.2357 61.2537 46.0115C61.4952 45.7873 61.8276 45.598 62.224 45.4588Z" fill="#D41D6D"/>
<path d="M80.0087 39.7198L90.4093 36.3403C91.1788 36.0904 91.8118 36.2674 91.8118 36.7358C91.781 36.9969 91.6394 37.2502 91.3987 37.4746C91.1581 37.6991 90.8253 37.8883 90.4279 38.0265L80.0087 41.4026C79.2392 41.6489 78.6187 41.4755 78.6187 41.0105C78.6521 40.7494 78.7955 40.4963 79.0371 40.272C79.2786 40.0477 79.6116 39.8585 80.0087 39.7198Z" fill="#D41D6D"/>
<path d="M97.8064 33.9809L108.207 30.6049C108.977 30.3551 109.603 30.532 109.61 30.997C109.579 31.2586 109.437 31.5123 109.197 31.7373C108.956 31.9623 108.623 32.1521 108.226 32.2912L97.8064 35.6603C97.0369 35.9101 96.4102 35.7332 96.4102 35.2682C96.4467 35.0076 96.5921 34.7553 96.8346 34.5318C97.0771 34.3082 97.4099 34.1195 97.8064 33.9809Z" fill="#D41D6D"/>
<path d="M115.58 28.235L125.98 24.8589C126.75 24.6091 127.377 24.7861 127.383 25.2545C127.352 25.516 127.21 25.7696 126.968 25.9941C126.726 26.2186 126.392 26.4076 125.993 26.5452L115.58 29.9213C114.81 30.1676 114.184 29.9941 114.184 29.5292C114.219 29.2674 114.363 29.0139 114.606 28.7891C114.848 28.5643 115.182 28.3745 115.58 28.235Z" fill="#D41D6D"/>
<path d="M133.365 22.4961L143.766 19.1166C144.535 18.8703 145.162 19.0472 145.168 19.5122C145.132 19.772 144.988 20.0236 144.746 20.2466C144.505 20.4695 144.173 20.6577 143.778 20.796L133.365 24.1685C132.596 24.4184 131.969 24.2414 131.969 23.7765C132.007 23.517 132.153 23.2662 132.396 23.0439C132.638 22.8216 132.97 22.634 133.365 22.4961Z" fill="#D41D6D"/>
<path d="M146.434 27.0069L146.291 75.4269L25.3993 114.5V66.0795L146.409 27.0069M147.65 25.8029L24.1582 65.677V115.704L147.532 75.8294L147.681 25.8029H147.65Z" fill="#E0E0E0"/>
<path d="M41.7827 110.02C41.6181 110.02 41.4602 109.984 41.3439 109.918C41.2275 109.853 41.1621 109.765 41.1621 109.673V60.3162C41.1621 60.2242 41.2275 60.1359 41.3439 60.0709C41.4602 60.0058 41.6181 59.9692 41.7827 59.9692C41.9473 59.9692 42.1051 60.0058 42.2215 60.0709C42.3379 60.1359 42.4032 60.2242 42.4032 60.3162V109.673C42.4032 109.765 42.3379 109.853 42.2215 109.918C42.1051 109.984 41.9473 110.02 41.7827 110.02Z" fill="#E0E0E0"/>
<path d="M59.4121 104.323C59.2475 104.323 59.0896 104.286 58.9733 104.221C58.8569 104.156 58.7915 104.068 58.7915 103.976L58.8287 54.6189C58.8287 54.5269 58.8941 54.4387 59.0105 54.3736C59.1269 54.3085 59.2847 54.272 59.4493 54.272C59.6139 54.272 59.7717 54.3085 59.8881 54.3736C60.0045 54.4387 60.0699 54.5269 60.0699 54.6189L60.0326 103.976C60.0326 104.068 59.9672 104.156 59.8509 104.221C59.7345 104.286 59.5766 104.323 59.4121 104.323Z" fill="#E0E0E0"/>
<path d="M77.0366 98.6291C76.872 98.6291 76.7142 98.5925 76.5978 98.5274C76.4814 98.4624 76.416 98.3741 76.416 98.2821L76.4781 48.9217C76.4781 48.8297 76.5435 48.7414 76.6598 48.6763C76.7762 48.6113 76.9341 48.5747 77.0986 48.5747C77.2632 48.5747 77.4211 48.6113 77.5374 48.6763C77.6538 48.7414 77.7192 48.8297 77.7192 48.9217L77.6571 98.2821C77.6571 98.3741 77.5918 98.4624 77.4754 98.5274C77.359 98.5925 77.2012 98.6291 77.0366 98.6291Z" fill="#E0E0E0"/>
<path d="M94.6611 92.9318C94.4965 92.9318 94.3387 92.8952 94.2223 92.8302C94.1059 92.7651 94.0405 92.6768 94.0405 92.5848L94.1212 43.2244C94.1212 43.1324 94.1866 43.0441 94.303 42.9791C94.4193 42.914 94.5772 42.8774 94.7418 42.8774C94.9063 42.8774 95.0642 42.914 95.1806 42.9791C95.297 43.0441 95.3623 43.1324 95.3623 43.2244L95.2817 92.5813C95.2825 92.6272 95.267 92.6727 95.2362 92.7152C95.2054 92.7577 95.1598 92.7963 95.1021 92.8289C95.0444 92.8615 94.9757 92.8874 94.9 92.905C94.8243 92.9227 94.7431 92.9318 94.6611 92.9318Z" fill="#E0E0E0"/>
<path d="M112.284 87.2344C112.12 87.2344 111.962 87.1978 111.845 87.1327C111.729 87.0677 111.664 86.9794 111.664 86.8874L111.769 37.5304C111.769 37.4384 111.834 37.3502 111.951 37.2851C112.067 37.22 112.225 37.1835 112.39 37.1835C112.554 37.1835 112.712 37.22 112.828 37.2851C112.945 37.3502 113.01 37.4384 113.01 37.5304L112.905 86.8874C112.905 86.9794 112.839 87.0677 112.723 87.1327C112.607 87.1978 112.449 87.2344 112.284 87.2344Z" fill="#E0E0E0"/>
<path d="M129.909 81.5371C129.744 81.5371 129.586 81.5005 129.47 81.4355C129.353 81.3704 129.288 81.2821 129.288 81.1901L129.412 31.8332C129.412 31.7412 129.478 31.6529 129.594 31.5878C129.71 31.5228 129.868 31.4862 130.033 31.4862C130.197 31.4862 130.355 31.5228 130.472 31.5878C130.588 31.6529 130.653 31.7412 130.653 31.8332L130.529 81.1936C130.528 81.285 130.461 81.3724 130.345 81.4367C130.229 81.501 130.072 81.5371 129.909 81.5371Z" fill="#E0E0E0"/>
<path d="M24.885 78.2859C24.7756 78.2862 24.6681 78.2702 24.5733 78.2398C24.4785 78.2093 24.3998 78.1654 24.3451 78.1124C24.2642 78.0328 24.2429 77.9384 24.2859 77.85C24.3289 77.7616 24.4328 77.6863 24.5747 77.6405L146.745 38.2036C146.886 38.1581 147.055 38.1456 147.213 38.169C147.371 38.1924 147.506 38.2497 147.589 38.3285C147.63 38.3679 147.657 38.4114 147.668 38.4567C147.679 38.5019 147.674 38.5479 147.653 38.5921C147.633 38.6363 147.597 38.6777 147.547 38.714C147.498 38.7504 147.436 38.7809 147.365 38.8038L25.2015 78.2408C25.1051 78.2714 24.9958 78.287 24.885 78.2859Z" fill="#E0E0E0"/>
<path d="M24.8847 90.7943C24.7473 90.7948 24.6134 90.7698 24.5041 90.7233C24.3949 90.6767 24.3163 90.6112 24.2808 90.5369C24.2453 90.4627 24.2549 90.384 24.308 90.3132C24.3612 90.2423 24.4548 90.1833 24.5744 90.1454L146.744 50.7085C146.886 50.667 147.051 50.6578 147.205 50.6827C147.359 50.7076 147.489 50.7648 147.569 50.8423C147.649 50.9198 147.673 51.0115 147.635 51.0985C147.597 51.1854 147.5 51.2607 147.365 51.3087L25.2012 90.7457C25.1063 90.7787 24.9963 90.7955 24.8847 90.7943Z" fill="#E0E0E0"/>
<path d="M24.885 103.299C24.7756 103.299 24.6681 103.284 24.5733 103.253C24.4785 103.223 24.3998 103.179 24.3451 103.126C24.2642 103.046 24.2429 102.952 24.2859 102.863C24.3289 102.775 24.4328 102.7 24.5747 102.654L146.745 63.2134C146.816 63.1906 146.894 63.1759 146.975 63.17C147.056 63.1641 147.138 63.1672 147.217 63.1792C147.296 63.1911 147.37 63.2116 147.435 63.2395C147.5 63.2674 147.554 63.3022 147.595 63.3418C147.636 63.3814 147.662 63.4252 147.673 63.4705C147.683 63.5159 147.677 63.5619 147.656 63.6061C147.635 63.6502 147.598 63.6916 147.548 63.7278C147.498 63.764 147.436 63.7944 147.365 63.8172L25.2015 103.254C25.1051 103.285 24.9958 103.3 24.885 103.299Z" fill="#E0E0E0"/>
<path opacity="0.1" d="M113.917 38.2731V50.6253L132.223 44.7164V32.3641L113.917 38.2731Z" fill="black"/>
<path d="M136.796 44.0433C136.796 44.0433 135.903 44.8899 132.707 45.9204L116.572 51.125L114.636 40.3896L132.937 34.4911L133.961 40.7054C134.147 41.6908 134.42 43.1654 136.796 44.0433Z" fill="#D41D6D"/>
<path d="M132.956 34.4633L114.655 40.3723V38.4778L132.956 32.5688V34.4633Z" fill="#D41D6D"/>
<path opacity="0.1" d="M132.956 34.4633L114.655 40.3723V38.4778L132.956 32.5688V34.4633Z" fill="black"/>
<path d="M131.137 39.7303C131.027 39.4423 130.887 39.1584 130.715 38.8802C130.715 38.849 130.678 38.8177 130.653 38.7865C130.778 38.6368 130.821 38.4694 130.774 38.3061C130.728 38.1428 130.595 37.991 130.392 37.8705C130.318 37.8323 130.131 37.7907 130.076 37.8705C129.95 38.1393 129.989 38.4241 130.187 38.6789C130.04 38.8662 129.862 39.0451 129.654 39.2133C129.466 39.3737 129.258 39.5267 129.033 39.6713C128.748 39.8413 128.313 40.0876 127.866 40.0946C127.74 40.0966 127.616 40.0742 127.516 40.0313C127.415 39.9883 127.344 39.9274 127.314 39.8586C127.451 39.7476 127.587 39.6366 127.705 39.5117C128 39.2624 128.211 38.9848 128.326 38.6928C128.347 38.6394 128.342 38.5839 128.314 38.5316C128.285 38.4794 128.232 38.4322 128.161 38.3948C128.089 38.3574 128.002 38.331 127.907 38.3181C127.812 38.3053 127.712 38.3065 127.618 38.3216C127.116 38.3875 126.942 38.7622 126.843 39.0155C126.737 39.2618 126.737 39.5186 126.843 39.765C126.729 39.8646 126.6 39.9586 126.458 40.046C126.399 40.0748 126.337 40.1014 126.272 40.1258C126.277 40.0958 126.277 40.0656 126.272 40.0356C126.272 39.9523 126.048 39.8239 125.893 39.8899C125.496 40.0668 125.415 40.3513 125.167 40.5838C125.111 40.6402 125.037 40.6907 124.95 40.733C124.844 40.7851 124.832 40.792 124.782 40.733C124.723 40.6125 124.64 40.4961 124.534 40.386C124.46 40.3167 124.205 40.2507 124.106 40.3409C123.956 40.4779 123.843 40.6263 123.771 40.7816C123.713 40.7458 123.642 40.7172 123.563 40.6977C123.484 40.6781 123.398 40.668 123.312 40.668C123.225 40.668 123.14 40.6781 123.06 40.6977C122.981 40.7172 122.91 40.7458 122.852 40.7816C122.53 40.9764 122.257 41.1947 122.039 41.4304C121.975 41.4949 121.904 41.5574 121.828 41.6178L121.76 41.6698C121.755 41.655 121.755 41.6396 121.76 41.6247C121.735 41.4318 121.735 41.2382 121.76 41.0453C121.76 41.0453 121.76 41.021 121.76 41.0106C121.76 40.8718 121.22 40.7955 121.22 40.9551C121.217 40.9782 121.217 41.0014 121.22 41.0245C121.165 41.2802 121.009 41.526 120.764 41.7438C120.518 41.9617 120.188 42.1462 119.799 42.284C119.57 42.3777 118.999 42.6101 118.695 42.5234C118.39 42.4367 118.471 42.1764 118.484 42.0515C118.533 41.6277 118.744 41.2147 119.104 40.8406C119.271 40.6563 119.519 40.4988 119.824 40.3826C119.92 40.3469 120.027 40.3224 120.14 40.3105C120.253 40.2985 120.369 40.2995 120.482 40.3132C120.773 40.3722 120.742 40.5595 120.668 40.6949C120.637 40.7504 120.792 40.8753 120.873 40.792C121.32 40.334 120.575 39.9211 119.718 40.0981C118.862 40.275 118.477 40.7434 118.248 41.1633C118.018 41.5831 117.714 42.0966 118.043 42.4991C118.434 42.9849 119.445 42.7871 120.054 42.5581C120.588 42.3599 121.037 42.098 121.369 41.7913C121.401 41.819 121.439 41.8447 121.481 41.8676C121.878 42.0932 122.244 41.885 122.461 41.6803C122.681 41.4312 122.954 41.1982 123.274 40.9863C123.318 40.962 123.374 40.9447 123.411 40.9204C123.439 40.9781 123.456 41.0375 123.46 41.0973C123.46 41.2292 123.46 41.361 123.491 41.4894C123.523 41.6178 123.926 41.715 124 41.5658C124.097 41.2826 124.219 41.0023 124.366 40.7261C124.528 40.9169 124.739 41.0939 125.167 40.9933C125.595 40.8926 125.732 40.5214 125.992 40.275C126.019 40.306 126.057 40.3332 126.104 40.3548C126.152 40.3764 126.207 40.3917 126.267 40.3997C126.327 40.4077 126.388 40.4081 126.448 40.401C126.508 40.3938 126.564 40.3792 126.613 40.3583C126.798 40.2963 126.959 40.2136 127.085 40.1154L127.134 40.0738C127.25 40.1784 127.42 40.2607 127.622 40.3096C127.824 40.3586 128.048 40.372 128.264 40.3479C128.877 40.2362 129.407 40.0142 129.772 39.7164C130.064 39.5234 130.319 39.3141 130.535 39.0918C130.535 39.0918 130.535 39.1161 130.535 39.13C130.696 39.4418 130.806 39.7612 130.864 40.0842C130.864 40.1675 130.864 40.2542 130.864 40.3444C130.542 40.2846 130.194 40.2843 129.873 40.3437C129.551 40.4031 129.271 40.5189 129.077 40.674C128.698 40.9343 128.574 41.4478 129.25 41.6039C129.815 41.7358 130.46 41.4651 130.827 41.2569C131.428 40.844 131.317 40.2264 131.137 39.7303ZM127.314 39.0155C127.36 38.9095 127.429 38.8069 127.519 38.7102C127.549 38.6719 127.594 38.6376 127.649 38.6095C127.693 38.5887 127.854 38.554 127.842 38.5506C127.829 38.5471 127.78 38.7067 127.755 38.7483C127.73 38.79 127.655 38.8941 127.606 38.9669C127.491 39.1163 127.358 39.2612 127.209 39.4006C127.223 39.2707 127.258 39.1418 127.314 39.0155ZM129.796 41.2812C129.523 41.3645 129.244 41.4304 129.213 41.2084C129.163 40.8406 130.1 40.393 130.74 40.5734C130.712 40.705 130.629 40.831 130.498 40.9412C130.313 41.075 130.08 41.186 129.815 41.2674L129.796 41.2812Z" fill="#455A64"/>
<path d="M119.948 44.1543C119.751 44.4763 119.502 44.7875 119.203 45.0842C118.937 45.3027 118.471 45.4762 118.409 45.7538C118.409 45.792 118.49 45.8891 118.577 45.844C119.016 45.6441 119.402 45.4104 119.725 45.1501V45.1189C119.632 45.4311 119.52 45.7399 119.464 46.0522C119.408 46.3645 119.328 46.6941 119.259 47.0133C119.191 47.3325 119.185 47.6518 119.079 47.9571C119.017 48.1132 119.526 48.2208 119.613 48.0508C119.659 47.897 119.686 47.7417 119.694 47.5858C119.725 47.4158 119.762 47.2389 119.799 47.0688C119.874 46.7496 119.942 46.4304 120.004 46.1077C120.204 45.4868 120.343 44.8601 120.42 44.2306C120.445 44.0953 120.054 44.0189 119.948 44.1543Z" fill="#455A64"/>
<path d="M124.057 44.1612C123.943 44.055 123.786 43.9657 123.597 43.901C123.417 43.8455 123.101 43.7795 122.908 43.8489C122.891 43.8376 122.87 43.8282 122.846 43.8212C122.226 43.731 121.835 44.0259 121.562 44.2826C121.312 44.5413 121.105 44.8118 120.941 45.0911C120.619 45.5699 120.321 46.3888 121.233 46.7357C122.046 47.0445 122.989 46.7704 123.498 46.3888C124.031 45.9575 124.326 45.4485 124.348 44.9245C124.379 44.6599 124.278 44.3957 124.057 44.1612ZM123.138 46.0522C122.859 46.3298 122.3 46.6872 121.655 46.5657C121.283 46.4963 121.202 46.2396 121.19 46.0487C121.179 45.7995 121.251 45.5514 121.4 45.3166C121.55 45.0641 121.728 44.8173 121.934 44.5776C122.108 44.3729 122.412 44.0189 122.884 43.9947C122.897 44.0045 122.914 44.0128 122.933 44.0189C123.081 44.0465 123.225 44.0814 123.361 44.123C123.442 44.1603 123.507 44.2063 123.554 44.2584C123.689 44.4248 123.753 44.6066 123.74 44.7892C123.735 45.232 123.528 45.6668 123.138 46.0522Z" fill="#455A64"/>
<path d="M133.594 44.0918C133.364 43.8143 133.24 43.5089 133.06 43.2209C132.946 42.9467 132.694 42.6963 132.334 42.4992C132.229 42.4541 132.018 42.416 131.937 42.4992C131.622 42.8081 131.412 43.1469 131.316 43.4985C131.229 43.4313 131.132 43.3686 131.025 43.3112C130.973 43.2878 130.908 43.275 130.842 43.275C130.775 43.275 130.711 43.2878 130.659 43.3112C130.559 43.3616 130.479 43.423 130.423 43.4916C130.31 43.3387 130.133 43.2031 129.908 43.096C129.856 43.072 129.792 43.0589 129.725 43.0589C129.658 43.0589 129.593 43.072 129.542 43.096C128.921 43.443 129.082 44.0814 128.921 44.5186C128.907 44.6137 128.847 44.7048 128.747 44.7823C128.617 44.8448 128.574 44.7823 128.499 44.7095C128.337 44.5524 128.232 44.3791 128.189 44.1994C128.189 44.1439 128.189 44.0884 128.189 44.0329C128.189 44.0329 128.189 44.0086 128.189 43.9982C128.189 43.8594 127.63 43.8073 127.637 43.9704C127.709 44.3336 127.563 44.6999 127.221 45.0113C127.053 45.1536 126.377 45.7053 126.085 45.3583C125.874 45.1258 126.197 44.7997 126.42 44.6054C126.667 44.3641 127.034 44.1677 127.475 44.0398C127.593 44.0016 127.475 43.8767 127.351 43.8802C126.693 43.8975 126.11 44.2931 125.825 44.5741C125.539 44.8552 125.278 45.3062 125.825 45.5838C126.445 45.9308 127.171 45.5838 127.575 45.2924C127.79 45.1342 127.965 44.9602 128.096 44.7754V44.7997C128.319 44.9974 128.797 45.1709 129.176 44.9732C129.554 44.7754 129.529 44.4284 129.573 44.1855C129.573 43.9155 129.659 43.6476 129.827 43.3944C130.061 43.626 130.205 43.8826 130.249 44.1474C130.28 44.2723 130.721 44.359 130.764 44.1994C130.767 44.0009 130.828 43.8041 130.944 43.6165C131.101 43.7397 131.24 43.8697 131.36 44.0051C131.459 44.1023 131.894 44.1716 131.856 44.0051C131.788 43.5961 131.935 43.1849 132.278 42.8219C132.462 42.9979 132.602 43.187 132.694 43.384C132.82 43.6369 132.976 43.8849 133.16 44.1265C133.246 44.2341 133.73 44.2514 133.594 44.0918Z" fill="#455A64"/>
<path d="M111.943 39.0121C111.989 38.5939 112.21 38.1875 112.588 37.8259C112.967 37.4643 113.492 37.1574 114.121 36.9302C114.346 36.8377 114.613 36.7818 114.891 36.769C115.169 36.7561 115.449 36.7867 115.698 36.8574L116.684 37.1835L116.287 37.5791C116.287 37.5791 116.287 37.6068 116.287 37.6207C116.245 38.0417 116.025 38.4512 115.647 38.8159C115.269 39.1807 114.742 39.4904 114.109 39.7199L113.656 40.164L112.582 39.817H112.545C112.324 39.7258 112.151 39.6028 112.045 39.461C111.939 39.3193 111.904 39.1641 111.943 39.0121Z" fill="#37474F"/>
<path d="M117.367 37.9608C117.325 38.3819 117.106 38.7915 116.728 39.1563C116.349 39.521 115.822 39.8307 115.189 40.06C113.985 40.4486 113.011 40.1398 113.011 39.3661C113.057 38.9479 113.278 38.5417 113.656 38.1801C114.035 37.8185 114.56 37.5117 115.189 37.2842C116.387 36.8818 117.367 37.1906 117.367 37.9608Z" fill="#455A64"/>
<path opacity="0.1" d="M62.1494 80.5517V92.9039L80.4498 86.9949V74.6427L62.1494 80.5517Z" fill="black"/>
<path d="M85.0232 86.308C85.0232 86.308 84.1296 87.1546 80.9399 88.1851L64.8053 93.3897L62.8691 82.6335L81.1757 76.735L82.1996 82.9493C82.3734 83.9694 82.634 85.4475 85.0232 86.308Z" fill="#D41D6D"/>
<path d="M81.1884 76.7419L62.8818 82.6508V80.7564L81.1884 74.8474V76.7419Z" fill="#D41D6D"/>
<path opacity="0.1" d="M81.1884 76.7419L62.8818 82.6508V80.7564L81.1884 74.8474V76.7419Z" fill="black"/>
<path d="M78.9603 83.5183L79.134 83.4974C79.3947 83.4766 79.2023 83.2685 78.9975 83.2754H78.8176C78.7617 83.2025 78.7121 83.1262 78.6562 83.0499C78.2534 82.4158 77.6478 81.8279 76.869 81.315C76.7511 81.2456 76.4656 81.2248 76.4594 81.3532C76.4064 81.8241 76.2543 82.29 76.0064 82.741C75.9747 82.5915 75.9101 82.4446 75.814 82.3039C75.7458 82.1998 75.3672 82.1096 75.3424 82.2796C75.312 82.4419 75.3659 82.6058 75.4976 82.7515C75.5675 83.4267 75.4545 84.104 75.1624 84.7604C75.0135 85.0311 74.7405 85.4197 74.1137 85.2878C74.1509 85.2011 74.1758 85.1178 74.2006 85.045C74.4612 84.3302 74.9266 83.1193 73.3132 82.7896C73.2755 82.78 73.2329 82.7782 73.1931 82.7845C73.1533 82.7909 73.1188 82.805 73.096 82.8243C72.8035 83.2325 72.6927 83.6742 72.7733 84.1116C72.7317 84.5752 73.0194 85.0291 73.5738 85.3746C73.5175 85.4977 73.3912 85.6073 73.2139 85.6868C72.7298 85.8742 72.0969 85.4266 71.8548 85.2462C71.7804 85.1907 71.5818 85.1178 71.4577 85.1837C70.9302 85.4509 70.8992 85.8985 70.9364 86.3149C70.8977 86.294 70.8491 86.2796 70.7964 86.2735C70.7437 86.2673 70.689 86.2697 70.6386 86.2802C70.4446 86.33 70.2818 86.4111 70.1712 86.5132C70.0606 86.6152 70.0072 86.7335 70.018 86.8527C69.7325 86.5716 69.354 86.3808 68.8079 86.582C68.5143 86.6848 68.2946 86.842 68.1873 87.0262C68.1344 86.697 67.8953 86.3859 67.5047 86.1379C67.3193 86.0401 67.074 85.9856 66.819 85.9856C66.564 85.9856 66.3187 86.0401 66.1333 86.1379C65.7659 86.4023 65.573 86.7296 65.5872 87.0643C65.5661 87.2393 65.5954 87.415 65.6741 87.5848C65.7051 87.6403 65.7423 87.7271 65.8664 87.7375C65.9905 87.7479 66.034 87.6854 65.9968 87.623C65.8168 87.3072 66.1022 86.0234 67.0765 86.2351C67.5978 86.353 67.6661 86.9464 67.7405 87.2066C67.8833 87.7028 68.0818 88.1955 68.2308 88.6882C68.2804 88.8408 68.7645 88.9068 68.7707 88.7159C68.7707 88.1573 68.2928 87.4425 68.9072 86.9394C68.9816 86.877 69.174 86.7347 69.3292 86.7659C69.4843 86.7972 69.565 86.9429 69.627 87.0123C69.807 87.2239 69.9063 87.4564 70.0987 87.6646C70.2042 87.7791 70.6137 87.845 70.6137 87.6646C70.6137 87.3801 70.3035 86.8388 70.7006 86.5925C70.7937 86.6827 70.8806 86.7729 70.9612 86.8666C71.0419 86.9602 71.4825 87.0505 71.4701 86.8666C71.4701 86.4675 71.2281 85.8569 71.6439 85.4787C72.041 85.725 72.5809 85.9991 73.1704 85.954C73.6048 85.9193 73.822 85.7216 73.9586 85.4995C74.207 85.5642 74.4901 85.5736 74.7505 85.526C75.0109 85.4783 75.2292 85.377 75.361 85.2427C75.7657 84.7951 75.9782 84.3009 75.9816 83.7993C76.0246 83.5271 76.0391 83.2537 76.025 82.9805C76.1074 82.9862 76.1908 82.9862 76.2733 82.9805C76.3109 82.9806 76.3475 82.9739 76.3777 82.9614C76.4079 82.9489 76.4301 82.9312 76.4408 82.9111C76.6743 82.506 76.8324 82.0886 76.9124 81.6654C77.4253 82.0697 77.8425 82.5094 78.1536 82.9735C78.228 83.0776 78.3025 83.1817 78.3707 83.2893C78.0167 83.3464 77.701 83.4609 77.4635 83.6184C77.226 83.7759 77.0774 83.9693 77.0365 84.174C77.0491 84.3835 77.1678 84.5866 77.3787 84.7598C77.5896 84.933 77.8841 85.0692 78.228 85.1525C79.0348 85.3156 79.3637 84.8264 79.3388 84.4586C79.2874 84.1372 79.1601 83.821 78.9603 83.5183ZM73.1704 84.292C73.0602 83.8837 73.1327 83.4664 73.3814 83.0776C74.2875 83.3899 73.8903 84.351 73.7352 84.8125C73.7041 84.8992 73.6793 85.0068 73.6483 85.1178C73.3664 84.8696 73.202 84.5855 73.1704 84.292ZM78.5135 84.986C78.1846 85.0345 77.8929 84.7813 77.7254 84.639C77.2662 84.1983 77.8247 83.7854 78.5507 83.5981C78.7135 83.8619 78.8197 84.1356 78.8672 84.4135C78.8858 84.5869 78.892 84.9304 78.5135 84.986Z" fill="#455A64"/>
<path d="M79.7111 81.0062C79.4954 80.6576 79.2276 80.3199 78.9105 79.9965C78.7492 79.823 78.5816 79.6495 78.4327 79.476C78.2838 79.3025 78.1721 79.1499 78.0231 78.9972C77.9363 78.9105 77.5577 78.848 77.5701 78.9972C77.6044 79.1809 77.6859 79.3609 77.8121 79.5315C77.9363 79.7085 78.0728 79.8785 78.2093 80.0589C78.4867 80.3805 78.7312 80.7107 78.9416 81.0478C79.0347 81.2178 79.0657 81.4677 79.4877 81.4503C79.9096 81.433 79.8103 81.1693 79.7111 81.0062Z" fill="#455A64"/>
<path d="M80.8713 82.5191C80.8633 82.4855 80.8466 82.4528 80.8217 82.4219C80.8131 82.4092 80.8004 82.3975 80.7845 82.3872C80.7722 82.3632 80.7509 82.3408 80.722 82.3217C80.6931 82.3025 80.6573 82.287 80.6169 82.2762L80.4866 82.2242L80.3997 82.1964C80.3673 82.1887 80.3325 82.1847 80.2973 82.1847C80.2621 82.1847 80.2273 82.1887 80.1949 82.1964C80.1707 82.2012 80.1493 82.2096 80.1329 82.2207C80.1133 82.2372 80.1025 82.2564 80.1018 82.2762C80.0956 82.2957 80.0956 82.3157 80.1018 82.3352C80.0807 82.3577 80.062 82.3808 80.046 82.4046C80.046 82.4323 80.046 82.4601 80.046 82.4879C80.0368 82.5119 80.0368 82.5367 80.046 82.5607C80.0587 82.5901 80.0816 82.6179 80.1136 82.6423C80.1456 82.6667 80.1858 82.6873 80.2321 82.703C80.3407 82.7377 80.4613 82.759 80.5859 82.7654C80.6584 82.7741 80.734 82.7666 80.7969 82.7446L80.8465 82.7203C80.8769 82.7011 80.8944 82.6766 80.8961 82.6509C80.9045 82.6065 80.896 82.5616 80.8713 82.5191Z" fill="#455A64"/>
<path d="M60.176 81.2942C60.2178 80.8731 60.437 80.4635 60.8155 80.0988C61.194 79.734 61.7211 79.4243 62.3541 79.195C62.579 79.1023 62.8459 79.0466 63.1245 79.0343C63.4031 79.0221 63.6823 79.0537 63.9304 79.1256L64.9232 79.4552L64.5199 79.8473C64.5199 79.8473 64.5199 79.8751 64.5199 79.8889C64.4807 80.31 64.2633 80.7198 63.8858 81.0847C63.5082 81.4496 62.9811 81.7592 62.3479 81.9881L61.9011 82.4323L60.8213 82.0853H60.7841C60.5659 81.9957 60.3945 81.8751 60.2876 81.736C60.1807 81.5969 60.1422 81.4444 60.176 81.2942Z" fill="#37474F"/>
<path d="M65.5936 80.2429C65.5475 80.661 65.3263 81.0672 64.948 81.4288C64.5697 81.7904 64.0447 82.0973 63.4155 82.3247C62.2178 82.7133 61.2373 82.4045 61.2373 81.6308C61.2802 81.2098 61.4997 80.8004 61.8781 80.4357C62.2565 80.0711 62.7832 79.7613 63.4155 79.5316C64.6194 79.1603 65.5936 79.4691 65.5936 80.2429Z" fill="#455A64"/>
<path d="M103.243 69.164L136.412 58.4529C138.621 57.7416 140.415 58.2135 140.415 59.4938C140.415 60.7742 138.621 62.4188 136.412 63.1301L103.243 73.8377C101.034 74.5525 99.2402 74.0806 99.2402 72.7968C99.2402 71.513 101.034 69.8753 103.243 69.164Z" fill="#D41D6D"/>
<path d="M56.0801 103.223C55.8616 103.225 55.6465 103.192 55.4595 103.129L44.91 99.7184C44.7616 99.675 44.6306 99.6153 44.5246 99.5429C44.4186 99.4704 44.3399 99.3867 44.2933 99.2968C44.2467 99.207 44.233 99.1127 44.2532 99.0198C44.2734 98.9269 44.327 98.8372 44.4107 98.7562C44.4945 98.6752 44.6067 98.6045 44.7406 98.5483C44.8746 98.4922 45.0274 98.4517 45.19 98.4295C45.3526 98.4072 45.5215 98.4036 45.6867 98.4187C45.8519 98.4339 46.0098 98.4676 46.1511 98.5179L56.7006 101.929C56.9366 102.005 57.1209 102.123 57.2251 102.264C57.3292 102.405 57.3473 102.561 57.2767 102.709C57.206 102.856 57.0505 102.986 56.8342 103.079C56.6179 103.172 56.3529 103.223 56.0801 103.223Z" fill="#D41D6D"/>
<path d="M45.9779 106.186C45.7591 106.187 45.5436 106.156 45.3534 106.095C45.1632 106.035 45.0049 105.947 44.8947 105.842C44.7844 105.736 44.7261 105.616 44.7256 105.494C44.7251 105.371 44.7825 105.251 44.8919 105.145L54.2438 95.6865C54.4034 95.5255 54.6709 95.4065 54.9875 95.3558C55.304 95.305 55.6437 95.3266 55.9317 95.4159C56.2197 95.5052 56.4325 95.6547 56.5233 95.8317C56.6141 96.0087 56.5754 96.1986 56.4157 96.3597L47.0639 105.815C46.9597 105.926 46.8037 106.019 46.6125 106.084C46.4213 106.149 46.202 106.185 45.9779 106.186Z" fill="#D41D6D"/>
<path d="M111.949 81.6688C111.918 81.1867 111.561 80.7291 110.95 80.3885C110.273 80.0565 109.431 79.8483 108.536 79.7917C107.193 79.7096 105.835 79.8294 104.602 80.1387C103.541 80.413 102.57 80.7848 101.729 81.2386C101.344 81.4329 100.959 81.6272 100.549 81.8041C100.332 81.8978 100.649 82.0887 100.86 82.0193C101.791 81.7139 102.61 81.3253 103.516 81.0026C104.507 80.6432 105.624 80.4065 106.792 80.3087C108.375 80.1803 110.466 80.4267 110.907 81.419C111.055 81.9186 111.019 82.4298 110.801 82.9214C110.631 83.4276 110.351 83.9204 109.97 84.3891C109.196 85.3254 108.062 86.1547 106.65 86.8179C105.445 87.4501 103.981 87.9065 102.386 88.1468C101.026 88.323 99.6003 88.2488 98.3216 87.9352C97.7568 87.7876 97.2774 87.5544 96.9378 87.262C96.5672 86.8869 96.3889 86.4619 96.4227 86.0337C96.4135 84.9908 96.8745 83.9633 97.7631 83.0463C99.5692 81.1561 102.586 79.7172 106.209 79.0179C106.699 78.9277 107.208 78.8479 107.711 78.7751C107.774 78.7568 107.826 78.7274 107.857 78.6914C107.888 78.6553 107.897 78.6146 107.883 78.5754C107.869 78.5361 107.833 78.5005 107.779 78.4739C107.726 78.4473 107.658 78.4313 107.587 78.4281C105.461 78.5856 103.445 79.0482 101.735 79.7709C99.9511 80.4841 98.4439 81.3917 97.3039 82.4391C96.2071 83.4226 95.5672 84.5437 95.4422 85.7007C95.3615 86.6687 95.678 87.6402 97.1922 88.2231C98.5415 88.6922 100.143 88.8802 101.716 88.754C103.457 88.607 105.094 88.2007 106.457 87.5778C108.119 86.8903 109.491 86.008 110.478 84.9928C111.493 83.9786 112.001 82.8305 111.949 81.6688Z" fill="#F28F8F"/>
<path d="M33.5727 65.5555L34.851 67.0718C34.8611 67.0861 34.8763 67.0991 34.8959 67.1099C34.9154 67.1208 34.9387 67.1293 34.9644 67.1348C34.99 67.1404 35.0175 67.1429 35.045 67.1422C35.0725 67.1415 35.0994 67.1376 35.1241 67.1307L37.9787 66.5201C38.2765 66.4576 38.3945 66.6901 38.1773 66.9156L36.117 69.0842C36.0333 69.1676 35.9966 69.2631 36.0115 69.3583L36.4955 71.3187C36.5514 71.5234 36.2349 71.7941 35.9681 71.7732L33.4176 71.5963C33.3496 71.5978 33.2834 71.6087 33.2249 71.6281C33.1664 71.6475 33.1174 71.6747 33.0824 71.7073L30.5257 73.5359C30.2589 73.7267 29.9486 73.6573 29.9982 73.4179L30.4885 71.1418C30.5036 71.1054 30.5018 71.0676 30.4834 71.0317C30.4649 70.9959 30.4304 70.9633 30.383 70.937L28.3165 70.1043C28.1055 70.0176 28.2234 69.7053 28.5213 69.5769L31.3759 68.3451C31.5068 68.2834 31.6018 68.2013 31.6489 68.1092L32.9211 65.7706C33.0576 65.5312 33.4424 65.4098 33.5727 65.5555Z" fill="#F28F8F"/>
<path d="M62.1622 56.5341L71.8553 53.4114C72.2649 53.2795 72.6 53.3732 72.6 53.623C72.5826 53.7633 72.506 53.8993 72.3766 54.0199C72.2471 54.1405 72.0685 54.2423 71.8553 54.317L62.1622 57.4397C61.7526 57.5716 61.4175 57.4779 61.4175 57.2281C61.4349 57.0878 61.5115 56.9517 61.6409 56.8311C61.7703 56.7105 61.9489 56.6088 62.1622 56.5341Z" fill="#455A64"/>
<path d="M62.1622 58.7513L68.8456 56.5931C69.2614 56.4578 69.5903 56.5515 69.5903 56.8013C69.5728 56.9416 69.4963 57.0776 69.3668 57.1982C69.2374 57.3188 69.0588 57.4206 68.8456 57.4953L62.1622 59.6569C61.7526 59.7887 61.4175 59.6951 61.4175 59.4452C61.4349 59.3049 61.5115 59.1689 61.6409 59.0483C61.7703 58.9277 61.9489 58.8259 62.1622 58.7513Z" fill="#455A64"/>
<path d="M96.8199 56.2809L106.507 53.1582C106.916 53.0263 107.252 53.12 107.252 53.3698C107.234 53.5101 107.157 53.646 107.027 53.7665C106.898 53.8871 106.72 53.9889 106.507 54.0638L96.8199 57.1865C96.4041 57.3184 96.0752 57.2247 96.0752 56.9749C96.0926 56.8346 96.1692 56.6986 96.2986 56.578C96.428 56.4574 96.6067 56.3556 96.8199 56.2809Z" fill="#455A64"/>
<path d="M96.8199 58.5084L103.503 56.3502C103.913 56.2184 104.248 56.312 104.248 56.5619C104.231 56.7022 104.154 56.8382 104.025 56.9588C103.895 57.0794 103.717 57.1812 103.503 57.2558L96.8199 59.414C96.4041 59.5493 96.0752 59.4521 96.0752 59.2058C96.0912 59.0648 96.1671 58.928 96.2966 58.8067C96.4261 58.6854 96.6055 58.5831 96.8199 58.5084Z" fill="#455A64"/>
<path d="M28.2232 90.9331L37.9102 87.8103C38.3259 87.675 38.6548 87.7722 38.6548 88.0185C38.6374 88.1588 38.5608 88.2948 38.4314 88.4154C38.302 88.536 38.1234 88.6378 37.9102 88.7125L28.2232 91.8352C27.8074 91.9705 27.4785 91.8734 27.4785 91.627C27.496 91.4867 27.5725 91.3507 27.7019 91.2301C27.8314 91.1095 28.01 91.0077 28.2232 90.9331Z" fill="#455A64"/>
<path d="M28.2232 93.1606L34.9066 91.0024C35.3162 90.8706 35.6513 90.9643 35.6513 91.2141C35.6334 91.3543 35.5566 91.4902 35.4272 91.6108C35.2979 91.7314 35.1195 91.8332 34.9066 91.908L28.2232 94.0662C27.8074 94.198 27.4785 94.1044 27.4785 93.8545C27.4945 93.714 27.5704 93.5777 27.7 93.457C27.8295 93.3362 28.0089 93.2346 28.2232 93.1606Z" fill="#455A64"/>
<path d="M114.984 75.4512L124.671 72.3284C125.087 72.1931 125.416 72.2902 125.416 72.5366C125.398 72.6769 125.322 72.8129 125.192 72.9335C125.063 73.0541 124.884 73.1559 124.671 73.2305L114.984 76.3533C114.568 76.4886 114.239 76.3915 114.239 76.1451C114.257 76.0048 114.333 75.8688 114.463 75.7482C114.592 75.6276 114.771 75.5258 114.984 75.4512Z" fill="#455A64"/>
<path d="M114.984 77.6787L121.667 75.5205C122.077 75.3886 122.412 75.4823 122.412 75.7321C122.394 75.8724 122.317 76.0083 122.188 76.1289C122.059 76.2494 121.88 76.3512 121.667 76.4261L114.984 78.5843C114.568 78.7161 114.239 78.6224 114.239 78.3726C114.255 78.2321 114.331 78.0958 114.461 77.975C114.59 77.8543 114.77 77.7527 114.984 77.6787Z" fill="#455A64"/>
<path d="M59.4498 66.8393L72.5995 62.5369L59.3691 74.6428L59.4498 66.8393Z" fill="#D41D6D"/>
<path opacity="0.3" d="M59.4498 66.8393L72.5995 62.5369L59.3691 74.6428L59.4498 66.8393Z" fill="black"/>
<path d="M12.2624 71.1279L20.4166 68.4874C20.8447 68.3486 21.1985 68.4458 21.1985 68.7095C21.1823 68.8562 21.1034 68.9987 20.9684 69.1249C20.8335 69.251 20.6463 69.3573 20.4228 69.4347L12.2624 72.0751C11.828 72.2139 11.4805 72.1133 11.4805 71.8531C11.4993 71.7063 11.58 71.5641 11.7159 71.4381C11.8518 71.312 12.039 71.2058 12.2624 71.1279Z" fill="#D41D6D"/>
<path d="M12.2624 73.1368L18.2756 71.1903C18.7038 71.0515 19.0575 71.1487 19.0637 71.4124C19.0449 71.5592 18.9642 71.7014 18.8283 71.8274C18.6924 71.9534 18.5052 72.0597 18.2818 72.1376L12.2624 74.0806C11.828 74.2229 11.4805 74.1222 11.4805 73.862C11.4993 73.7152 11.58 73.573 11.7159 73.447C11.8518 73.321 12.039 73.2147 12.2624 73.1368Z" fill="#D41D6D"/>
<path d="M12.2624 83.6153L20.4166 80.9749C20.8447 80.8361 21.1985 80.9332 21.1985 81.1969C21.1823 81.3437 21.1034 81.4861 20.9684 81.6123C20.8335 81.7385 20.6463 81.8447 20.4228 81.9221L12.2624 84.5626C11.828 84.7014 11.4805 84.6042 11.4805 84.3405C11.5003 84.1939 11.5814 84.0519 11.7172 83.9259C11.853 83.8 12.0397 83.6936 12.2624 83.6153Z" fill="#D41D6D"/>
<path d="M12.2624 85.6244L18.2756 83.6779C18.7038 83.5391 19.0575 83.6362 19.0637 83.8999C19.0449 84.0467 18.9642 84.1889 18.8283 84.3149C18.6924 84.441 18.5052 84.5472 18.2818 84.6251L12.2624 86.5716C11.828 86.7104 11.4805 86.6098 11.4805 86.3496C11.4993 86.2028 11.58 86.0606 11.7159 85.9345C11.8518 85.8085 12.039 85.7022 12.2624 85.6244Z" fill="#D41D6D"/>
<path d="M12.2624 96.1273L20.4166 93.4868C20.8447 93.348 21.1985 93.4452 21.1985 93.7089C21.1823 93.8556 21.1034 93.9981 20.9684 94.1242C20.8335 94.2504 20.6463 94.3567 20.4228 94.4341L12.2624 97.0745C11.828 97.2133 11.4805 97.1127 11.4805 96.8525C11.4993 96.7057 11.58 96.5635 11.7159 96.4375C11.8518 96.3114 12.039 96.2051 12.2624 96.1273Z" fill="#D41D6D"/>
<path d="M12.2624 98.1362L18.2756 96.1897C18.7038 96.0509 19.0575 96.1481 19.0637 96.4118C19.0449 96.5585 18.9642 96.7008 18.8283 96.8268C18.6924 96.9528 18.5052 97.0591 18.2818 97.1369L12.2624 99.08C11.828 99.2188 11.4805 99.1216 11.4805 98.8614C11.4993 98.7146 11.58 98.5724 11.7159 98.4464C11.8518 98.3204 12.039 98.2141 12.2624 98.1362Z" fill="#D41D6D"/>
<path d="M12.2624 108.608L20.4166 105.967C20.8447 105.825 21.1985 105.926 21.1985 106.186C21.1833 106.333 21.1048 106.476 20.9698 106.603C20.8348 106.73 20.6472 106.837 20.4228 106.915L12.2624 109.555C11.828 109.694 11.4805 109.593 11.4805 109.333C11.4993 109.186 11.58 109.044 11.7159 108.918C11.8518 108.792 12.039 108.686 12.2624 108.608Z" fill="#D41D6D"/>
<path d="M12.2624 110.617L18.2756 108.67C18.7038 108.528 19.0575 108.629 19.0637 108.892C19.0449 109.039 18.9642 109.181 18.8283 109.307C18.6924 109.433 18.5052 109.54 18.2818 109.618L12.2624 111.561C11.828 111.699 11.4805 111.602 11.4805 111.342C11.4993 111.195 11.58 111.053 11.7159 110.927C11.8518 110.801 12.039 110.695 12.2624 110.617Z" fill="#D41D6D"/>
<g opacity="0.4">
<path d="M12.2624 73.1368L18.2756 71.1903C18.7038 71.0515 19.0575 71.1487 19.0637 71.4124C19.0449 71.5592 18.9642 71.7014 18.8283 71.8274C18.6924 71.9534 18.5052 72.0597 18.2818 72.1376L12.2624 74.0806C11.828 74.2229 11.4805 74.1222 11.4805 73.862C11.4993 73.7152 11.58 73.573 11.7159 73.447C11.8518 73.321 12.039 73.2147 12.2624 73.1368Z" fill="black"/>
<path d="M12.2624 85.6244L18.2756 83.6779C18.7038 83.5391 19.0575 83.6362 19.0637 83.8999C19.0449 84.0467 18.9642 84.1889 18.8283 84.3149C18.6924 84.441 18.5052 84.5472 18.2818 84.6251L12.2624 86.5716C11.828 86.7104 11.4805 86.6098 11.4805 86.3496C11.4993 86.2028 11.58 86.0606 11.7159 85.9345C11.8518 85.8085 12.039 85.7022 12.2624 85.6244Z" fill="black"/>
<path d="M12.2624 98.1362L18.2756 96.1897C18.7038 96.0509 19.0575 96.1481 19.0637 96.4118C19.0449 96.5585 18.9642 96.7008 18.8283 96.8268C18.6924 96.9528 18.5052 97.0591 18.2818 97.1369L12.2624 99.08C11.828 99.2188 11.4805 99.1216 11.4805 98.8614C11.4993 98.7146 11.58 98.5724 11.7159 98.4464C11.8518 98.3204 12.039 98.2141 12.2624 98.1362Z" fill="black"/>
<path d="M12.2624 110.617L18.2756 108.67C18.7038 108.528 19.0575 108.629 19.0637 108.892C19.0449 109.039 18.9642 109.181 18.8283 109.307C18.6924 109.433 18.5052 109.54 18.2818 109.618L12.2624 111.561C11.828 111.699 11.4805 111.602 11.4805 111.342C11.4993 111.195 11.58 111.053 11.7159 110.927C11.8518 110.801 12.039 110.695 12.2624 110.617Z" fill="black"/>
</g>
<path opacity="0.1" d="M153.657 64.1953C151.866 64.6663 150.122 65.191 148.432 65.7671C137.61 69.6636 129.344 78.6502 129.964 85.8395C130.002 86.2559 130.07 86.6514 130.163 87.0366L153.657 79.4517V64.1953Z" fill="black"/>
</svg>
